<svg width="84" height="84" xmlns="http://www.w3.org/2000/svg" xmlns:xlink="http://www.w3.org/1999/xlink" xml:space="preserve" overflow="hidden"><defs><clipPath id="clip0"><rect x="466" y="318" width="84" height="84"/></clipPath></defs><g clip-path="url(#clip0)" transform="translate(-466 -318)"><path d="M848.034 720.211 831.06 703.263 816.16 688.363C810.86 683.082 802.286 683.082 796.986 688.363 788.613 696.736 784.489 708.196 791.926 719.478 792.08 719.694 792.38 719.745 792.596 719.592 792.641 719.561 792.679 719.522 792.711 719.478 796.151 715.456 807.332 713.634 815.806 713.634 826.73 713.591 837.486 716.315 847.072 721.552 847.501 721.787 848.039 721.63 848.274 721.201 848.46 720.861 848.404 720.44 848.135 720.161" fill="#002C81" transform="matrix(1 0 0 1.00452 -298.834 -369.397)"/><path d="M797.542 728.913C790.623 724.514 786.441 716.876 786.462 708.676 786.5 704.004 787.831 699.434 790.307 695.472 790.37 695.395 790.359 695.281 790.282 695.219 790.205 695.156 790.092 695.167 790.029 695.244L769.792 715.481C761.293 723.955 774.067 735.844 797.137 730.836 797.726 730.714 798.104 730.139 797.983 729.551 797.925 729.269 797.757 729.021 797.517 728.863" fill="#002C81" transform="matrix(1 0 0 1.00452 -298.834 -369.397)"/><path d="M765.112 732.05 782.061 748.999 796.96 763.898C802.261 769.179 810.834 769.179 816.135 763.898 824.533 755.525 828.631 744.066 821.194 732.784 821.018 732.567 820.699 732.535 820.482 732.711 820.456 732.733 820.432 732.757 820.41 732.784 816.995 736.831 805.814 738.652 797.315 738.652 786.388 738.693 775.63 735.96 766.048 730.709 765.62 730.474 765.081 730.631 764.846 731.06 764.654 731.412 764.721 731.849 765.011 732.126" fill="#002C81" transform="matrix(1 0 0 1.00452 -298.834 -369.397)"/><path d="M815.604 723.475C822.517 727.876 826.69 735.516 826.658 743.712 826.631 748.385 825.3 752.959 822.813 756.916 822.813 757.093 822.94 757.296 823.117 757.144L843.354 736.907C851.853 728.433 839.104 716.543 816.008 721.552 815.422 721.684 815.054 722.266 815.186 722.852 815.248 723.129 815.416 723.37 815.654 723.525" fill="#002C81" transform="matrix(1 0 0 1.00452 -298.834 -369.397)"/><path d="M876.087 735.212 865.311 757.346 870.016 757.346 872.698 751.705 884.384 751.705 886.61 756.334C886.889 756.951 887.503 757.347 888.179 757.346L891.897 757.346 880.691 734.2 877.782 734.2C877.115 734.207 876.509 734.589 876.214 735.187M882.791 748.063 874.569 748.063 878.693 739.462Z" fill="#002C81" transform="matrix(1 0 0 1.00452 -298.834 -369.397)"/><path d="M904.444 751.958 897.311 735.288C897.034 734.652 896.411 734.237 895.717 734.226L892.024 734.226 902.294 757.372 906.443 757.372 916.738 734.251 912.059 734.251Z" fill="#002C81" transform="matrix(1 0 0 1.00452 -298.834 -369.397)"/><path d="M160.024 49.8337 164.603 49.8337 164.603 72.9799 160.024 72.9799Z" fill="#002C81" transform="matrix(1 0 0 1.00452 466 318.085)"/><path d="M956.327 750.744 944.033 735.263C943.524 734.623 942.751 734.25 941.934 734.251L938.999 734.251 938.999 757.397 943.325 757.397 943.325 740.929 956.403 757.397 960.653 757.397 960.653 734.251 956.327 734.251Z" fill="#002C81" transform="matrix(1 0 0 1.00452 -298.834 -369.397)"/><path d="M972.846 757.397 987.214 757.397 987.214 753.83 974.819 753.83 974.819 747.38 986.329 747.38 986.329 743.712 974.819 743.712 974.819 737.944 987.189 737.944 987.189 734.301 970.215 734.301 970.215 754.817C970.215 756.214 971.347 757.346 972.744 757.346" fill="#002C81" transform="matrix(1 0 0 1.00452 -298.834 -369.397)"/><path d="M1009.32 745.482 1018.45 734.276 1013.4 734.276 1006.82 742.32 1001.13 735.313C1000.59 734.654 999.778 734.273 998.926 734.276L994.828 734.276 1003.96 745.432 994.145 757.422 999.204 757.422 1006.41 748.594 1012.79 756.385C1013.32 757.04 1014.12 757.421 1014.96 757.422L1019.09 757.422Z" fill="#002C81" transform="matrix(1 0 0 1.00452 -298.834 -369.397)"/><path d="M1017.8 704.629 1005.53 704.629C1009.25 703.343 1012.75 701.482 1015.9 699.114 1016.69 698.51 1017.17 697.58 1017.19 696.585L1017.19 695.472 998.015 695.472 998.015 698.178 1010.84 698.178C1006.58 701.217 1001.78 703.415 996.7 704.654L996.7 707.437 999.685 707.437 999.685 709.359C1000.01 714.404 998.451 719.389 995.309 723.348L995.309 723.475 997.383 724.714 997.383 724.714C1001.83 720.307 1004.35 714.308 1004.36 708.044L1004.36 707.487 1006.89 707.487 1006.89 709.41C1007.21 714.62 1005.49 719.75 1002.11 723.728L1002.11 723.854 1004.34 725.195 1004.34 725.195C1008.92 720.676 1011.57 714.554 1011.73 708.12L1011.73 707.563 1013.93 707.563 1013.93 720.54C1013.93 722.589 1012.21 723.07 1010.79 723.07L1010.66 723.07 1010.66 725.878 1010.79 725.878C1013.95 725.878 1019.24 724.992 1019.24 718.947L1019.24 706.298C1019.24 705.53 1018.62 704.907 1017.85 704.907" fill="#002C81" transform="matrix(1 0 0 1.00452 -298.834 -369.397)"/><path d="M996.27 719.832 996.27 716.923 996.068 716.923C995.005 717.328 993.993 717.682 993.032 717.985L993.032 703.971 996.27 703.971 996.27 701.189 993.032 701.189 993.032 696.003C993.032 695.318 992.477 694.763 991.793 694.763 991.784 694.763 991.776 694.763 991.767 694.763L988.302 694.763 988.302 701.189 985.064 701.189 985.064 703.971 988.302 703.971 988.302 719.301C986.177 719.781 984.937 719.933 984.912 719.933L984.785 719.933 984.785 722.842 984.937 722.842C988.823 722.427 992.62 721.412 996.194 719.832Z" fill="#002C81" transform="matrix(1 0 0 1.00452 -298.834 -369.397)"/><path d="M883.12 707.057 896.425 707.057 896.425 703.794 883.12 703.794 883.12 696.205C883.12 695.507 882.553 694.94 881.855 694.94L876.795 694.94 876.795 722.21 865.21 722.21 865.21 725.195 899.815 725.195 899.815 722.21 883.018 722.21Z" fill="#002C81" transform="matrix(1 0 0 1.00452 -298.834 -369.397)"/><path d="M908.998 696.079C908.8 695.766 908.457 695.576 908.087 695.573L904.116 695.573 904.116 695.775C905.294 697.8 906.252 699.946 906.974 702.175L906.974 702.175 911.527 702.175 911.527 701.998C910.905 699.885 910.012 697.861 908.871 695.977" fill="#002C81" transform="matrix(1 0 0 1.00452 -298.834 -369.397)"/><path d="M908.998 704.452C908.8 704.139 908.457 703.949 908.087 703.946L904.116 703.946 904.116 704.173C905.202 705.997 906.092 707.93 906.772 709.941 906.906 710.37 907.308 710.659 907.758 710.649L911.553 710.649 911.553 710.472C910.931 708.359 910.038 706.336 908.897 704.452" fill="#002C81" transform="matrix(1 0 0 1.00452 -298.834 -369.397)"/><path d="M906.721 713.356C906.279 717.321 905.309 721.209 903.837 724.917L903.837 725.119 907.632 725.119C908.079 725.12 908.477 724.835 908.618 724.411 909.95 720.567 910.898 716.602 911.451 712.572L911.451 712.42 907.834 712.42C907.298 712.427 906.846 712.825 906.772 713.356" fill="#002C81" transform="matrix(1 0 0 1.00452 -298.834 -369.397)"/><path d="M938.316 702.403C938.316 701.648 937.705 701.037 936.95 701.037L917.826 701.037C918.288 700.464 918.703 699.855 919.066 699.215L939.834 699.215 939.834 696.509 920.229 696.509C920.406 696.028 920.558 695.547 920.71 695.016L920.71 694.839 916.966 694.839C916.499 694.842 916.088 695.15 915.954 695.598 915.176 697.943 913.966 700.122 912.387 702.023L912.134 702.276 915.246 702.276 914.841 709.334 912.312 709.334 912.312 711.864 914.689 711.864 914.386 717.176C914.315 718.11 914.646 719.031 915.297 719.705 915.953 720.396 916.874 720.774 917.826 720.743L933.004 720.743C932.726 722.488 930.879 722.766 929.715 722.766L925.845 722.766 925.845 725.574 929.69 725.574C931.967 725.574 936.849 725.068 938.063 720.743L939.834 720.743 939.834 718.213 938.316 718.213 938.316 712.015 940.416 712.015 940.416 709.486 938.316 709.486ZM933.004 718.188 930.07 718.188C929.577 716.918 928.949 715.706 928.198 714.57 928.002 714.271 927.669 714.091 927.312 714.09L923.315 714.09 923.467 714.317C924.272 715.543 924.966 716.839 925.542 718.188L920.685 718.188C920.462 718.196 920.248 718.103 920.103 717.935 919.93 717.784 919.844 717.555 919.875 717.328L920.179 711.99 933.13 711.99ZM933.004 709.334 930.044 709.334C929.549 708.087 928.93 706.892 928.198 705.767 927.993 705.478 927.666 705.3 927.312 705.286L923.315 705.286 923.467 705.514C924.264 706.723 924.95 708.002 925.516 709.334L920.331 709.334 920.659 703.693 933.13 703.693Z" fill="#002C81" transform="matrix(1 0 0 1.00452 -298.834 -369.397)"/><path d="M977.5 722.134 977.5 697.293C977.5 696.534 976.893 695.915 976.134 695.902L960.956 695.902 960.956 710.624C961.219 715.602 959.812 720.525 956.96 724.613L956.96 724.739 959.008 725.979 959.008 725.979C963.005 722.918 965.586 716.392 965.586 709.309L965.586 699.013 972.618 699.013 972.618 721.603C972.618 723.614 974.249 725.245 976.261 725.245L981.32 725.245 981.32 722.539 977.854 722.539C977.659 722.539 977.5 722.38 977.5 722.184" fill="#002C81" transform="matrix(1 0 0 1.00452 -298.834 -369.397)"/><path d="M959.717 710.826C958.411 708.462 956.804 706.276 954.936 704.325L954.936 700.961 959.59 700.961 959.59 698.254 954.936 698.254 954.936 696.003C954.936 695.304 954.37 694.738 953.671 694.738L950.635 694.738 950.635 698.254 945.728 698.254 945.728 700.961 949.269 700.961C949.03 706.57 947.098 711.976 943.73 716.468L943.73 716.594 945.5 717.732 945.5 717.732C947.625 715.649 949.341 713.187 950.56 710.472L950.56 725.65 954.86 725.65 954.86 709.056C955.469 710.262 955.985 711.514 956.403 712.799L956.403 712.951 959.616 711.029Z" fill="#002C81" transform="matrix(1 0 0 1.00452 -298.834 -369.397)"/><path d="M1109.04 744.192C1107.22 743.811 1105.46 743.154 1103.83 742.244 1102.8 741.594 1102.5 740.235 1103.15 739.208 1103.32 738.933 1103.56 738.7 1103.83 738.526 1104.79 737.967 1105.88 737.695 1106.99 737.742 1107.97 737.739 1108.94 737.919 1109.85 738.273 1110.9 738.709 1111.89 739.288 1112.78 739.993L1113.14 740.271 1115.97 737.463 1115.54 737.084C1114.34 736.094 1112.98 735.315 1111.52 734.782 1110.06 734.25 1108.52 733.984 1106.97 733.998 1104.74 733.907 1102.54 734.528 1100.69 735.769 1099.09 736.805 1098.14 738.592 1098.16 740.499 1098.12 742.117 1098.81 743.668 1100.04 744.724 1102.01 746.151 1104.26 747.15 1106.64 747.658 1108.16 747.992 1109.62 748.564 1110.96 749.353 1111.54 749.736 1111.88 750.383 1111.87 751.073 1111.87 751.938 1111.42 752.739 1110.69 753.198 1109.71 753.843 1108.56 754.162 1107.4 754.108 1104.58 754.18 1101.85 753.134 1099.81 751.199L1099.43 750.87 1096.65 753.704 1097.05 754.083C1098.42 755.3 1100.01 756.245 1101.73 756.866 1103.52 757.514 1105.42 757.84 1107.32 757.827 1109.62 757.912 1111.89 757.236 1113.77 755.904 1115.44 754.816 1116.45 752.962 1116.45 750.972 1116.47 749.393 1115.8 747.886 1114.61 746.848 1112.93 745.55 1110.99 744.642 1108.91 744.192" fill="#002C81" transform="matrix(1 0 0 1.00452 -298.834 -369.397)"/><path d="M377.649 59.2693 365.026 59.2693 365.026 49.9096 360.321 49.9096 360.321 73.1063 365.026 73.1063 365.026 63.0131 377.649 63.0131 377.649 73.1063 382.328 73.1063 382.328 49.9096 377.649 49.9096 377.649 59.2693Z" fill="#002C81" transform="matrix(1 0 0 1.00452 466 318.085)"/><path d="M1165.27 735.212 1154.5 757.346 1159.18 757.346 1161.86 751.705 1173.55 751.705 1175.77 756.334C1176.06 756.955 1176.68 757.35 1177.37 757.346L1181.06 757.346 1169.88 734.2 1166.84 734.2C1166.17 734.189 1165.56 734.576 1165.27 735.187M1171.85 748.063 1163.63 748.063 1167.75 739.462Z" fill="#002C81" transform="matrix(1 0 0 1.00452 -298.834 -369.397)"/><path d="M1217.06 704.325 1204.64 704.325C1208.4 703.032 1211.94 701.144 1215.11 698.735 1215.91 698.14 1216.4 697.206 1216.42 696.205L1216.42 695.067 1197.05 695.067 1197.05 697.875 1210.02 697.875C1205.72 700.945 1200.87 703.169 1195.73 704.426L1195.73 707.234 1198.74 707.234 1198.74 709.182C1199.07 714.282 1197.49 719.322 1194.31 723.323L1194.31 723.449 1196.41 724.714 1196.41 724.714C1200.91 720.263 1203.45 714.196 1203.45 707.867L1203.45 707.31 1205.98 707.31 1205.98 709.258C1206.28 714.522 1204.55 719.702 1201.14 723.728L1201.14 723.854 1203.37 725.195 1203.37 725.195C1208 720.63 1210.68 714.444 1210.83 707.943L1210.83 707.386 1213.06 707.386 1213.06 720.515C1213.06 722.564 1211.34 723.044 1209.87 723.044L1209.75 723.044 1209.75 725.878 1209.87 725.878C1213.06 725.878 1218.42 724.967 1218.42 718.871L1218.42 705.767C1218.42 704.999 1217.8 704.376 1217.03 704.376" fill="#002C81" transform="matrix(1 0 0 1.00452 -298.834 -369.397)"/><path d="M1195.28 719.705 1195.28 716.771 1195.1 716.771C1194.01 717.176 1193 717.555 1192.01 717.859L1192.01 703.693 1195.28 703.693 1195.28 700.885 1192.01 700.885 1192.01 695.649C1192.01 694.95 1191.45 694.384 1190.75 694.384L1187.23 694.384 1187.23 700.885 1183.87 700.885 1183.87 703.693 1187.13 703.693 1187.13 719.174C1186 719.443 1184.85 719.654 1183.69 719.807L1183.69 719.807 1183.69 722.741 1183.87 722.741C1187.8 722.317 1191.64 721.284 1195.25 719.68Z" fill="#002C81" transform="matrix(1 0 0 1.00452 -298.834 -369.397)"/><path d="M1176.28 722.033 1176.28 696.913C1176.28 696.145 1175.66 695.522 1174.89 695.522L1159.48 695.522 1159.48 710.396C1159.75 715.43 1158.33 720.409 1155.43 724.537L1155.43 724.664 1157.51 725.903 1157.51 725.903C1161.58 722.817 1164.19 716.215 1164.19 709.056L1164.19 698.659 1171.22 698.659 1171.22 721.426C1171.23 723.46 1172.88 725.105 1174.91 725.119L1180.12 725.119 1180.12 722.362 1176.58 722.362C1176.4 722.362 1176.25 722.214 1176.25 722.033" fill="#002C81" transform="matrix(1 0 0 1.00452 -298.834 -369.397)"/><path d="M1158.34 710.826C1157.05 708.42 1155.42 706.207 1153.51 704.249L1153.51 700.708 1158.22 700.708 1158.22 697.976 1153.51 697.976 1153.51 695.649C1153.51 694.95 1152.95 694.384 1152.25 694.384L1149.16 694.384 1149.16 697.925 1144.23 697.925 1144.23 700.708 1147.79 700.708C1147.54 706.381 1145.58 711.846 1142.18 716.392L1142.18 716.518 1143.95 717.682 1143.95 717.682C1146.14 715.589 1147.9 713.099 1149.16 710.346L1149.16 725.675 1153.51 725.675 1153.51 708.803C1154.14 710.023 1154.66 711.292 1155.08 712.597L1155.08 712.774 1158.32 710.801Z" fill="#002C81" transform="matrix(1 0 0 1.00452 -298.834 -369.397)"/><path d="M1115.74 710.826C1114.46 708.412 1112.83 706.197 1110.91 704.249L1110.91 700.708 1115.57 700.708 1115.57 697.976 1110.86 697.976 1110.86 695.649C1110.86 694.95 1110.3 694.384 1109.6 694.384L1106.54 694.384 1106.54 697.925 1101.48 697.925 1101.48 700.708 1105.04 700.708C1104.8 706.383 1102.84 711.851 1099.43 716.392L1099.43 716.518 1101.22 717.682 1101.22 717.682C1103.4 715.576 1105.16 713.089 1106.44 710.346L1106.44 725.675 1110.76 725.675 1110.76 708.803C1111.38 710.023 1111.91 711.292 1112.33 712.597L1112.33 712.774 1115.59 710.801Z" fill="#002C81" transform="matrix(1 0 0 1.00452 -298.834 -369.397)"/><path d="M325.564 13.9889 331.66 13.9889 331.66 11.2063 314.762 11.2063 314.762 13.9889 320.833 13.9889 320.833 37.4638 313.244 37.4638 313.244 40.2717 333.152 40.2717 333.152 37.4638 325.564 37.4638 325.564 13.9889Z" fill="#002C81" transform="matrix(1 0 0 1.00452 466 318.085)"/><path d="M1130.37 705.059 1138.59 705.059 1138.59 702.276 1129.4 702.276C1129.29 701.693 1129.22 701.101 1129.2 700.505L1129.2 698.178C1131.75 698.048 1134.29 697.727 1136.79 697.217L1136.79 694.434C1130.36 695.466 1123.85 695.932 1117.34 695.826L1117.34 698.608C1117.34 698.608 1120.7 698.608 1124.8 698.431L1124.8 700.506C1124.79 701.1 1124.73 701.692 1124.62 702.276L1115.47 702.276 1115.47 705.059 1123.66 705.059C1121.34 709.003 1117.79 712.071 1113.54 713.786L1115.64 715.051C1116.96 714.7 1118.25 714.243 1119.49 713.685L1119.49 715.253C1119.84 718.627 1118.64 721.976 1116.23 724.36L1118.3 725.599C1122 723.088 1124.18 718.866 1124.07 714.393L1124.07 712.167 1122.25 712.167C1124.15 710.994 1125.8 709.455 1127.1 707.639 1128.39 709.46 1130.03 711 1131.93 712.167L1129.81 712.167 1129.81 725.599 1134.41 725.599 1134.41 713.533C1135.73 714.18 1137.11 714.688 1138.54 715.051L1140.66 713.786C1136.42 712.068 1132.87 709.001 1130.54 705.059" fill="#002C81" transform="matrix(1 0 0 1.00452 -298.834 -369.397)"/><path d="M1072.87 715.557C1073.12 716.468 1073.37 717.555 1073.58 718.668L1071.05 719.174 1071.05 714.115 1073.25 714.115C1075.64 714.115 1077.57 712.178 1077.57 709.789L1077.57 697.495 1071.05 697.495 1071.05 695.649C1071.05 694.964 1070.49 694.409 1069.81 694.409 1069.8 694.409 1069.79 694.409 1069.78 694.409L1066.72 694.409 1066.72 697.419 1060.19 697.419 1060.19 714.039 1066.72 714.039 1066.72 720.009 1059.49 721.4 1059.49 724.638 1074.26 721.754C1074.26 722.21 1074.44 722.665 1074.49 723.07L1077.62 723.07C1077.24 720.514 1076.71 717.981 1076.05 715.481ZM1073.17 700.151 1073.17 710.27C1073.16 710.931 1072.62 711.459 1071.96 711.459L1070.94 711.459 1070.94 700.202ZM1064.39 700.151 1066.62 700.151 1066.62 711.434 1064.39 711.434Z" fill="#002C81" transform="matrix(1 0 0 1.00452 -298.834 -369.397)"/><path d="M273.15 10.4221 275.755 10.4221 275.755 73.081 273.15 73.081Z" fill="#002C81" transform="matrix(1 0 0 1.00452 466 318.085)"/></g></svg>