<?xml version="1.0" encoding="utf-8"?>
<!-- Generator: Adobe Illustrator 23.0.6, SVG Export Plug-In . SVG Version: 6.00 Build 0)  -->
<svg version="1.1"
	 id="svg2" inkscape:version="0.48.4 r9939" sodipodi:docname="Logo of Line 1, HZM.svg" xmlns:cc="http://creativecommons.org/ns#" xmlns:dc="http://purl.org/dc/elements/1.1/" xmlns:inkscape="http://www.inkscape.org/namespaces/inkscape" xmlns:rdf="http://www.w3.org/1999/02/22-rdf-syntax-ns#" xmlns:sodipodi="http://sodipodi.sourceforge.net/DTD/sodipodi-0.dtd" xmlns:svg="http://www.w3.org/2000/svg"
	 xmlns="http://www.w3.org/2000/svg" xmlns:xlink="http://www.w3.org/1999/xlink" x="0px" y="0px" viewBox="0 0 184.1 184.1"
	 style="enable-background:new 0 0 184.1 184.1;" xml:space="preserve">
<style type="text/css">
	.st0{fill:#DF4661;}
	.st1{fill:#FFFFFF;}
</style>
<sodipodi:namedview  bordercolor="#666666" borderopacity="1.0" id="base" inkscape:current-layer="layer1" inkscape:cx="242.32674" inkscape:cy="203.16832" inkscape:document-units="px" inkscape:guide-bbox="true" inkscape:pageopacity="0.0" inkscape:pageshadow="2" inkscape:window-height="744" inkscape:window-maximized="1" inkscape:window-width="1317" inkscape:window-x="49" inkscape:window-y="24" inkscape:zoom="1.01" pagecolor="#ffffff" showgrid="false" showguides="true">
	</sodipodi:namedview>
<g id="layer1" transform="translate(0,-868.21218)" inkscape:groupmode="layer" inkscape:label="Layer 1">
	<path id="rect3757" class="st0" d="M10,868.2h164.1c5.5,0,10,4.5,10,10v164.1c0,5.5-4.5,10-10,10H10c-5.5,0-10-4.5-10-10V878.2
		C0,872.7,4.5,868.2,10,868.2z"/>
	<g id="text3759">
		<path id="path4524" class="st1" d="M63.6,1015.7H49.5v-89.6c-3.4,3.2-7.8,6.5-13.4,9.7c-5.5,3.2-10.4,5.7-14.8,7.3v-13.6
			c7.9-3.7,14.7-8.2,20.6-13.4c5.9-5.3,10.1-10.4,12.5-15.3h9.1V1015.7"/>
	</g>
	<g id="text3761">
		<path id="path4527" class="st1" d="M114.8,946.3c-0.1,1.7-0.2,3.7-0.2,5.8c0,2.2,0.1,4.2,0.2,6.2H89.9c0.1-1.6,0.2-3.5,0.2-5.7
			c0-2.3-0.1-4.4-0.2-6.4H114.8 M115.8,962.2c2.2,0,4.1-0.1,5.8-0.2v3.1c-1.7-0.1-3.7-0.2-5.8-0.2H97.1c-0.5,1.6-1,3.4-1.5,5.3h20.3
			c-0.3,1.8-0.6,3.4-0.9,4.6c-0.1,1.3-0.3,2.8-0.7,4.6c-0.3,1.7-1,2.9-2.1,3.4c-1,0.7-4.3,1.2-9.8,1.5c-0.5-1.3-1-2.6-1.7-4
			c4.1,0.1,6.7,0.1,7.7,0c1.1-0.1,1.9-0.7,2.2-1.7c0.3-1.1,0.7-3,1-5.7H91.3c1-2.8,1.8-5.5,2.4-8.3h-4.1c-2.4,0-4.6,0.1-6.7,0.2V962
			c2.1,0.1,4.3,0.2,6.7,0.2H115.8 M111.4,955.6v-6.5h-18v6.5H111.4"/>
		<path id="path4529" class="st1" d="M148,950.6c0-1.7-0.2-3.6-0.5-5.7c1.5,0.1,3,0.3,4.6,0.5c-0.3,0.7-0.6,1.8-0.7,3.4
			c-0.1,1.5-0.1,3.7,0,6.5l5.8-1c1.9-0.5,3.9-1,5.8-1.5l0.7,3.3c-1.9,0.2-4,0.5-6,0.9l-6.2,1.2c0,1.8,0.1,3.4,0.3,4.8l6.7-1.2
			c2.3-0.5,4.5-1,6.5-1.7l0.5,3.3c-2.1,0.3-4.2,0.7-6.5,1.2l-6.7,1.2c0.2,2.3,0.8,4.4,1.7,6.4c1-0.8,2-1.7,2.9-2.8
			c1-1,1.9-2.2,2.8-3.4c1.7,1.4,3,2.3,4,2.8c-1.5,0.7-2.7,1.5-3.6,2.4c-0.8,0.8-2.2,2.1-4.1,4c1.4,2.3,2.6,3.8,3.6,4.5
			c1.1,0.6,1.9,0.6,2.4,0c0.5-0.6,0.9-1.8,1.2-3.6c1,0.8,2.2,1.4,3.6,1.9c-1.9,5-4.1,7-6.4,6c-2.3-0.9-4.7-3.2-7.2-6.7
			c-1.6,1.3-3.2,2.4-4.8,3.4c-1.5,1.1-3.4,2.3-5.7,3.4c-0.6-1.1-1.4-2.2-2.6-3.1c2.3-0.8,4.2-1.7,5.8-2.6c1.6-0.9,3.4-2.2,5.5-4
			c-1-2.3-1.8-5-2.2-8.1c-3.4,0.6-5.8,1.1-7.2,1.5l-0.5-3.3c1.4,0,3.7-0.3,7-1c-0.2-1.8-0.3-3.4-0.3-4.6c-3.1,0.7-5.2,1.2-6.4,1.5
			l-0.7-3.3c1.1,0,3.4-0.3,6.7-1V950.6 M137.7,946.7c-1.1,1-2.3,2.5-3.4,4.5c-1,1.8-2.5,4.1-4.3,6.9c2.7-0.1,4.6-0.2,5.7-0.2
			c1-1.7,1.9-3.6,2.8-5.7c1.1,0.8,2.4,1.4,3.8,1.9c-1.1,1.1-2.3,2.7-3.6,4.6c-1.1,1.9-3.2,5.3-6.2,10c3.1-0.2,5.8-0.5,8.3-0.7
			c-0.3,1.1-0.5,2.1-0.5,2.9c-0.8,0-2.6,0.2-5.3,0.5c-2.8,0.2-5,0.6-6.7,1c-0.1-1.1-0.5-2.3-1-3.6c1.4-0.3,2.6-1.3,3.8-2.8
			c1.1-1.5,2.3-3.4,3.6-5.7c-3.8,0.2-6.2,0.7-7.2,1.4c-0.3-1.3-0.9-2.5-1.5-3.8c1.5-1,2.9-2.7,4.3-5c1.4-2.4,2.6-5.2,3.8-8.3
			C134.9,945.6,136.2,946.2,137.7,946.7 M142,974.2c-0.1,1.3-0.1,2.2,0,2.9c-2.9,0.6-5.4,1.1-7.7,1.7c-2.3,0.6-4.4,1.2-6.4,1.9
			c-0.3-1.3-1-2.5-1.9-3.8c3.2-0.3,5.7-0.6,7.4-0.9C135.1,975.7,138,975.1,142,974.2 M157.6,952.5c-0.8-1.3-1.9-2.8-3.3-4.5l2.8-1.4
			c0.5,0.6,1.6,1.9,3.4,4.1C159.4,951.3,158.4,951.8,157.6,952.5"/>
	</g>
	<g id="text2995">
		<path id="path4513" class="st1" d="M86.6,1015.8v-22.9h3v20.2h11.3v2.7H86.6"/>
		<path id="path4515" class="st1" d="M104.2,996.2v-3.2h2.8v3.2H104.2 M104.2,1015.8v-16.6h2.8v16.6H104.2"/>
		<path id="path4517" class="st1" d="M111.3,1015.8v-16.6h2.5v2.4c1.2-1.8,3-2.7,5.3-2.7c1,0,1.9,0.2,2.8,0.5
			c0.8,0.4,1.5,0.8,1.9,1.4c0.4,0.6,0.7,1.3,0.9,2.1c0.1,0.5,0.2,1.4,0.2,2.7v10.2h-2.8v-10.1c0-1.1-0.1-2-0.3-2.6
			c-0.2-0.6-0.6-1-1.2-1.4c-0.6-0.3-1.2-0.5-2-0.5c-1.2,0-2.2,0.4-3.1,1.1c-0.9,0.8-1.3,2.2-1.3,4.3v9.1L111.3,1015.8"/>
		<path id="path4519" class="st1" d="M140.4,1010.5l2.9,0.4c-0.5,1.7-1.3,3-2.5,4c-1.2,0.9-2.8,1.4-4.8,1.4c-2.4,0-4.4-0.7-5.8-2.2
			c-1.4-1.5-2.1-3.6-2.1-6.3c0-2.8,0.7-5,2.2-6.5c1.4-1.5,3.3-2.3,5.6-2.3c2.2,0,4,0.8,5.4,2.3c1.4,1.5,2.1,3.6,2.1,6.4
			c0,0.2,0,0.4,0,0.8H131c0.1,1.8,0.6,3.2,1.5,4.2c0.9,1,2.1,1.5,3.5,1.5c1,0,1.9-0.3,2.6-0.8C139.4,1012.6,140,1011.7,140.4,1010.5
			 M131.2,1006h9.3c-0.1-1.4-0.5-2.4-1.1-3.1c-0.9-1.1-2.1-1.6-3.5-1.6c-1.3,0-2.4,0.4-3.3,1.3
			C131.8,1003.4,131.3,1004.5,131.2,1006"/>
		<path id="path4521" class="st1" d="M165.6,1015.8h-2.8v-17.9c-0.7,0.6-1.6,1.3-2.7,1.9c-1.1,0.6-2.1,1.1-3,1.5v-2.7
			c1.6-0.7,2.9-1.6,4.1-2.7c1.2-1.1,2-2.1,2.5-3.1h1.8V1015.8"/>
	</g>
</g>
</svg>
