<?xml version="1.0" encoding="UTF-8"?>
<svg id="uuid-fccbb96f-ed87-47a9-a43b-05ea0d2a6354" data-name="图层 2" xmlns="http://www.w3.org/2000/svg" width="90.05" height="69.04" viewBox="0 0 90.05 69.04">
  <g id="uuid-b3b14281-5f6f-42de-941d-40b45ecca1e3" data-name="图层 2">
    <g>
      <g id="uuid-023dbf04-da59-4687-8c36-59a1e676e048" data-name="rect3757">
        <path d="M4.89,0h80.27c2.69,0,4.89,1.69,4.89,3.75v61.54c0,2.06-2.2,3.75-4.89,3.75H4.89c-2.69,0-4.89-1.69-4.89-3.75V3.75C0,1.69,2.2,0,4.89,0Z" style="fill: #05c3dd;"/>
      </g>
      <g>
        <path d="M65.92,35.2c.82,0,1.55-.02,2.19-.06v1.16c-.65-.04-1.38-.06-2.19-.06h-7.03c-.17.6-.37,1.27-.58,2h7.61c-.13.69-.23,1.27-.29,1.74-.06.47-.16,1.04-.29,1.71s-.39,1.12-.77,1.35c-.39.24-1.61.42-3.68.55-.17-.47-.39-.97-.65-1.48,1.55.04,2.53.04,2.93,0,.41-.04.68-.27.81-.68.13-.41.26-1.11.39-2.1h-7.67c.39-1.03.69-2.06.9-3.1h-1.55c-.9,0-1.74.02-2.51.06v-1.16c.77.04,1.61.06,2.51.06h9.87ZM65.47,31.46c0,.82.02,1.59.06,2.32h-9.35c.04-.6.06-1.31.06-2.13,0-.86-.02-1.66-.06-2.39h9.35c-.04.65-.06,1.38-.06,2.19ZM64.24,32.75v-2.45h-6.77v2.45h6.77Z" style="fill: #fff;"/>
        <path d="M72.85,31.04c-.41.71-.96,1.58-1.65,2.61,1.03-.04,1.74-.06,2.13-.06.39-.64.73-1.35,1.03-2.13.43.3.9.54,1.42.71-.43.43-.87,1.01-1.32,1.74-.45.73-1.24,1.98-2.35,3.74,1.16-.09,2.19-.17,3.1-.26-.13.43-.19.8-.19,1.1-.3,0-.97.05-2,.16-1.03.11-1.87.25-2.52.42-.04-.43-.17-.88-.39-1.35.52-.13.99-.47,1.42-1.03.43-.56.88-1.27,1.35-2.13-1.42.09-2.32.26-2.71.52-.13-.47-.32-.95-.58-1.42.56-.39,1.1-1.02,1.61-1.9.52-.88.99-1.9,1.42-3.06.43.3.92.54,1.48.71-.43.39-.85.94-1.26,1.64ZM75.72,40.81c-1.08.22-2.04.43-2.9.65-.86.21-1.66.45-2.39.71-.13-.47-.37-.95-.71-1.42,1.2-.13,2.13-.25,2.77-.35.65-.11,1.72-.33,3.23-.68-.04.47-.04.84,0,1.1ZM77.98,30.88c0-.64-.06-1.35-.19-2.13.56.04,1.14.11,1.74.19-.13.26-.22.68-.26,1.26-.04.58-.04,1.41,0,2.48l2.19-.39c.73-.17,1.46-.36,2.19-.58l.26,1.23c-.73.09-1.48.19-2.26.32l-2.32.45c0,.69.04,1.29.13,1.81l2.52-.45c.86-.17,1.68-.39,2.45-.64l.19,1.23c-.77.13-1.59.28-2.45.45l-2.52.45c.09.86.3,1.66.65,2.39.39-.3.76-.65,1.13-1.03.36-.39.7-.82,1-1.29.65.52,1.14.86,1.48,1.03-.56.26-1,.55-1.32.87s-.85.83-1.58,1.52c.52.86.98,1.41,1.39,1.64.41.24.7.25.87.03.17-.21.32-.67.45-1.35.39.3.84.54,1.35.71-.73,1.89-1.53,2.66-2.39,2.29-.86-.37-1.76-1.22-2.71-2.55-.6.47-1.19.91-1.77,1.32-.58.41-1.3.83-2.16,1.26-.22-.43-.54-.82-.97-1.16.86-.3,1.59-.62,2.19-.97.6-.34,1.29-.84,2.06-1.48-.39-.86-.67-1.87-.84-3.03-1.29.22-2.19.41-2.71.58l-.19-1.23c.52,0,1.4-.13,2.64-.39-.09-.69-.13-1.27-.13-1.74-1.16.26-1.96.45-2.39.58l-.26-1.23c.43,0,1.27-.13,2.52-.39v-2.06ZM80.37,29.91l1.03-.52c.17.22.6.73,1.29,1.55-.43.17-.8.39-1.1.65-.3-.47-.71-1.03-1.23-1.68Z" style="fill: #fff;"/>
      </g>
      <g>
        <path d="M53.15,55.33v-8.58h1.14v7.57h4.24v1.01h-5.38Z" style="fill: #fff;"/>
        <path d="M59.75,47.96v-1.21h1.06v1.21h-1.06ZM59.75,55.33v-6.22h1.06v6.22h-1.06Z" style="fill: #fff;"/>
        <path d="M62.42,55.33v-6.22h.95v.88c.46-.68,1.12-1.02,1.98-1.02.38,0,.72.07,1.04.2.31.13.55.31.71.53s.27.48.33.78c.04.2.06.54.06,1.02v3.82h-1.06v-3.78c0-.43-.04-.75-.12-.96s-.23-.38-.44-.51-.46-.19-.74-.19c-.45,0-.84.14-1.17.43-.33.29-.49.83-.49,1.62v3.39h-1.06Z" style="fill: #fff;"/>
        <path d="M73.37,53.33l1.09.13c-.17.64-.49,1.13-.96,1.48-.47.35-1.06.53-1.78.53-.91,0-1.63-.28-2.17-.84-.53-.56-.8-1.35-.8-2.36s.27-1.86.81-2.43,1.24-.87,2.1-.87,1.51.28,2.04.85.79,1.36.79,2.39c0,.06,0,.16,0,.28h-4.65c.04.68.23,1.21.58,1.57.35.36.78.54,1.3.54.39,0,.72-.1.99-.3.27-.2.49-.53.65-.97ZM69.9,51.63h3.48c-.05-.52-.18-.92-.4-1.18-.34-.41-.77-.61-1.31-.61-.49,0-.89.16-1.22.49-.33.32-.51.76-.55,1.3Z" style="fill: #fff;"/>
      </g>
      <path d="M79.72,55.72h-1.03v-6.62c-.25.24-.57.48-.97.72-.4.24-.76.42-1.08.54v-1c.58-.27,1.08-.6,1.51-.99.43-.39.74-.77.91-1.13h.66v8.5Z" style="fill: #fff;"/>
      <path d="M24.93,47.21l4.42-.41c.38,2.07,1.09,3.57,2.15,4.5,1.06.93,2.41,1.4,4.07,1.4,1.42,0,2.66-.32,3.72-.97,1.07-.64,1.94-1.5,2.62-2.58.68-1.08,1.25-2.53,1.71-4.36.46-1.83.69-3.7.69-5.6,0-.2,0-.51-.03-.92-.92,1.46-2.18,2.64-3.77,3.55-1.59.91-3.32,1.36-5.18,1.36-3.1,0-5.73-1.12-7.88-3.36-2.15-2.24-3.22-5.19-3.22-8.85s1.12-6.83,3.36-9.13c2.24-2.31,5.05-3.46,8.43-3.46,2.44,0,4.67.65,6.69,1.96,2.02,1.31,3.55,3.17,4.6,5.58,1.05,2.42,1.57,5.92,1.57,10.5s-.52,8.56-1.56,11.39-2.59,4.97-4.64,6.45c-2.05,1.48-4.46,2.21-7.23,2.21-2.93,0-5.33-.81-7.19-2.43-1.86-1.62-2.98-3.9-3.35-6.83ZM43.78,30.74c0-2.63-.7-4.72-2.11-6.26-1.41-1.54-3.1-2.32-5.08-2.32s-3.83.83-5.35,2.49c-1.52,1.66-2.28,3.82-2.28,6.46,0,2.38.72,4.3,2.16,5.79s3.22,2.23,5.33,2.23,3.88-.74,5.26-2.23c1.37-1.48,2.06-3.54,2.06-6.17Z" style="fill: #fff;"/>
      <path d="M18.34,55.83h-4.6v-29.18c-1.11,1.05-2.56,2.1-4.36,3.16-1.8,1.05-3.41,1.84-4.85,2.37v-4.43c2.57-1.2,4.83-2.66,6.75-4.38,1.93-1.71,3.29-3.38,4.09-4.99h2.97v37.45Z" style="fill: #fff;"/>
      <path d="M81.66,53.77l.99-.09c.08.47.24.81.48,1.02.24.21.54.32.91.32.32,0,.59-.07.83-.22s.43-.34.59-.59c.15-.25.28-.58.38-.99.1-.42.15-.84.15-1.27,0-.05,0-.12,0-.21-.21.33-.49.6-.84.81s-.74.31-1.16.31c-.69,0-1.28-.25-1.76-.76-.48-.51-.72-1.18-.72-2.01s.25-1.55.75-2.07,1.13-.79,1.88-.79c.54,0,1.04.15,1.49.44.45.3.79.72,1.03,1.27s.35,1.34.35,2.38-.12,1.94-.35,2.58c-.23.64-.58,1.13-1.04,1.46-.46.33-1,.5-1.62.5-.66,0-1.19-.18-1.61-.55-.42-.37-.67-.88-.75-1.55ZM85.88,50.03c0-.6-.16-1.07-.47-1.42-.31-.35-.69-.53-1.13-.53s-.86.19-1.19.57c-.34.38-.51.87-.51,1.47,0,.54.16.98.48,1.31.32.34.72.51,1.19.51s.87-.17,1.17-.51.46-.8.46-1.4Z" style="fill: #fff;"/>
    </g>
  </g>
</svg>