<?xml version="1.0" encoding="utf-8"?>
<!-- Generator: Adobe Illustrator 23.0.4, SVG Export Plug-In . SVG Version: 6.00 Build 0)  -->
<svg version="1.1" id="图层_1" xmlns="http://www.w3.org/2000/svg" xmlns:xlink="http://www.w3.org/1999/xlink" x="0px" y="0px"
	 viewBox="0 0 135.2 78.7" style="enable-background:new 0 0 135.2 78.7;" xml:space="preserve">
<style type="text/css">
	.st0{fill:#D60E19;}
	.st1{fill:#FFFFFF;}
</style>
<path class="st0" d="M135.3,70.2c0,4.7-3.8,8.5-8.5,8.5H8.5c-4.7,0-8.5-3.8-8.5-8.5V8.5C0,3.8,3.8,0,8.5,0h118.3
	c4.7,0,8.5,3.8,8.5,8.5V70.2L135.3,70.2z"/>
<g>
	<path class="st1" d="M80.8,25.1c1.8,0,3.4,0,4.8-0.1v2.5c-1.4-0.1-3-0.1-4.8-0.1H65.4c-0.4,1.3-0.8,2.8-1.3,4.4h16.6
		c-0.3,1.5-0.5,2.8-0.6,3.8s-0.4,2.3-0.6,3.7c-0.3,1.5-0.8,2.4-1.7,3s-3.5,0.9-8,1.2c-0.4-1-0.8-2.1-1.4-3.2c3.4,0.1,5.5,0.1,6.4,0
		s1.5-0.6,1.8-1.5s0.6-2.4,0.8-4.6H60.7c0.8-2.2,1.5-4.5,2-6.8h-3.4c-2,0-3.8,0-5.5,0.1V25c1.7,0.1,3.5,0.1,5.5,0.1H80.8z
		 M79.8,16.9c0,1.8,0,3.5,0.1,5.1H59.5c0.1-1.3,0.1-2.9,0.1-4.6c0-1.9,0-3.6-0.1-5.2h20.4C79.8,13.6,79.8,15.2,79.8,16.9z
		 M77.1,19.8v-5.3H62.4v5.3H77.1z"/>
	<path class="st1" d="M95.9,16c-0.9,1.5-2.1,3.4-3.6,5.7c2.2-0.1,3.8-0.1,4.6-0.1c0.8-1.4,1.6-3,2.2-4.6c0.9,0.7,2,1.2,3.1,1.5
		c-0.9,0.9-1.9,2.2-2.9,3.8c-1,1.6-2.7,4.3-5.1,8.2c2.5-0.2,4.8-0.4,6.8-0.6c-0.3,0.9-0.4,1.7-0.4,2.4c-0.7,0-2.1,0.1-4.4,0.4
		c-2.2,0.2-4.1,0.5-5.5,0.9c-0.1-0.9-0.4-1.9-0.8-3c1.1-0.3,2.2-1,3.1-2.2s1.9-2.8,3-4.6c-3.1,0.2-5.1,0.6-5.9,1.1
		c-0.3-1-0.7-2.1-1.3-3.1c1.2-0.8,2.4-2.2,3.5-4.1s2.2-4.1,3.1-6.7c0.9,0.7,2,1.2,3.2,1.5C97.7,13.3,96.8,14.5,95.9,16z M102.2,37.3
		c-2.3,0.5-4.5,0.9-6.3,1.4c-1.9,0.5-3.6,1-5.2,1.5c-0.3-1-0.8-2.1-1.5-3.1c2.6-0.3,4.6-0.5,6-0.8c1.4-0.2,3.7-0.7,7-1.5
		C102.1,36,102.1,36.8,102.2,37.3z M107.1,15.7c0-1.4-0.1-3-0.4-4.6c1.2,0.1,2.5,0.2,3.8,0.4c-0.3,0.6-0.5,1.5-0.6,2.7
		c-0.1,1.3-0.1,3.1,0,5.4l4.8-0.8c1.6-0.4,3.2-0.8,4.8-1.3l0.6,2.7c-1.6,0.2-3.2,0.4-4.9,0.7l-5.1,1c0,1.5,0.1,2.8,0.3,3.9l5.5-1
		c1.9-0.4,3.7-0.8,5.3-1.4l0.4,2.7c-1.7,0.3-3.5,0.6-5.3,1l-5.5,1c0.2,1.9,0.7,3.6,1.4,5.2c0.8-0.7,1.7-1.4,2.5-2.2
		c0.8-0.8,1.5-1.8,2.2-2.8c1.4,1.1,2.5,1.9,3.2,2.2c-1.2,0.6-2.2,1.2-2.9,1.9s-1.9,1.8-3.4,3.3c1.1,1.9,2.1,3.1,3,3.6
		s1.5,0.5,1.9,0.1c0.4-0.5,0.7-1.5,1-3c0.8,0.7,1.8,1.2,3,1.5c-1.6,4.1-3.3,5.8-5.2,5c-1.9-0.8-3.8-2.7-5.9-5.6
		c-1.3,1-2.6,2-3.9,2.9s-2.8,1.8-4.7,2.7c-0.5-0.9-1.2-1.8-2.1-2.5c1.9-0.7,3.5-1.4,4.8-2.1c1.3-0.7,2.8-1.8,4.5-3.2
		c-0.8-1.9-1.5-4.1-1.8-6.6c-2.8,0.5-4.8,0.9-5.9,1.3l-0.4-2.7c1.1,0,3-0.3,5.8-0.8c-0.2-1.5-0.3-2.8-0.3-3.8
		c-2.5,0.6-4.3,1-5.2,1.3l-0.6-2.7c0.9,0,2.8-0.3,5.5-0.8L107.1,15.7L107.1,15.7L107.1,15.7z M112.3,13.6l2.2-1.1
		c0.4,0.5,1.3,1.6,2.8,3.4c-0.9,0.4-1.7,0.8-2.4,1.4C114.3,16.2,113.4,15,112.3,13.6z"/>
</g>
<g>
	<path class="st1" d="M60.5,64.4V49.5h3v12.4H71v2.5C71.1,64.4,60.5,64.4,60.5,64.4z"/>
	<path class="st1" d="M73.2,52.1v-2.7h2.9v2.7H73.2z M73.2,64.4V53.5h2.9v10.9H73.2L73.2,64.4z"/>
	<path class="st1" d="M89,64.4h-2.9v-5.6c0-1.2-0.1-1.9-0.2-2.3c-0.1-0.3-0.3-0.6-0.6-0.8c-0.3-0.2-0.6-0.3-1-0.3
		c-0.5,0-0.9,0.1-1.3,0.4c-0.4,0.3-0.7,0.6-0.8,1.1c-0.1,0.4-0.2,1.3-0.2,2.5v4.9h-3V53.5h2.7v1.6c0.9-1.2,2.1-1.8,3.6-1.8
		c0.6,0,1.2,0.1,1.7,0.3s0.9,0.5,1.2,0.9c0.3,0.4,0.5,0.8,0.6,1.2s0.2,1.1,0.2,1.9L89,64.4L89,64.4L89,64.4z"/>
	<path class="st1" d="M98.2,61l2.9,0.5c-0.4,1.1-1,1.9-1.7,2.4s-1.8,0.8-3,0.8c-1.9,0-3.3-0.6-4.2-1.9c-0.7-1-1.1-2.2-1.1-3.8
		c0-1.8,0.5-3.2,1.4-4.2s2.1-1.5,3.6-1.5c1.6,0,2.9,0.5,3.8,1.6s1.4,2.7,1.3,4.9H94c0,0.9,0.3,1.5,0.7,2c0.4,0.5,1,0.7,1.7,0.7
		c0.5,0,0.8-0.1,1.1-0.4S98,61.5,98.2,61z M98.4,58c0-0.8-0.2-1.5-0.6-1.9s-0.9-0.7-1.5-0.7s-1.1,0.2-1.6,0.7
		c-0.4,0.5-0.6,1.1-0.6,1.9H98.4L98.4,58z"/>
	<path class="st1" d="M118.5,61.7v2.7h-10.1c0.1-1,0.4-2,1-2.9c0.5-0.9,1.6-2.1,3.2-3.6c1.3-1.2,2.1-2,2.4-2.5
		c0.4-0.6,0.6-1.2,0.6-1.8s-0.2-1.1-0.5-1.5s-0.8-0.5-1.4-0.5s-1.1,0.2-1.4,0.5c-0.4,0.4-0.6,1-0.6,1.8l-2.9-0.3
		c0.2-1.6,0.7-2.7,1.6-3.4s2-1,3.4-1c1.5,0,2.6,0.4,3.5,1.2c0.8,0.8,1.3,1.8,1.3,3c0,0.7-0.1,1.3-0.4,1.9c-0.2,0.6-0.6,1.3-1.2,1.9
		c-0.3,0.4-1,1.1-1.9,1.9c-0.9,0.8-1.5,1.4-1.7,1.7s-0.4,0.5-0.6,0.8L118.5,61.7L118.5,61.7L118.5,61.7z"/>
</g>
<g>
	<path class="st1" d="M48.6,59.4v6.4h-36c-0.1-1.6,0.2-3.2,0.8-4.6c0.9-2.4,2.4-4.9,4.4-7.2s4.9-5.1,8.7-8.2
		c5.9-4.8,9.9-8.7,12-11.5s3.1-5.5,3.1-8c0-2.6-0.9-4.9-2.8-6.7c-1.9-1.8-4.4-2.7-7.4-2.7c-3.2,0-5.8,1-7.7,2.9s-2.9,4.6-2.9,8
		l-6.9-0.7c0.5-5.1,2.2-9,5.3-11.7s7.2-4,12.4-4S41,12.8,44,15.7s4.6,6.5,4.6,10.8c0,2.2-0.4,4.3-1.3,6.4s-2.4,4.3-4.4,6.6
		c-2.1,2.3-5.5,5.5-10.3,9.6c-4,3.4-6.6,5.6-7.7,6.8s-2.1,2.4-2.8,3.6L48.6,59.4L48.6,59.4L48.6,59.4z"/>
</g>
</svg>
