<svg width="913" height="444" xmlns="http://www.w3.org/2000/svg" xmlns:xlink="http://www.w3.org/1999/xlink" xml:space="preserve" overflow="hidden"><g transform="translate(-2327 -466)"><path d="M2343.5 541.668C2343.5 501.259 2376.26 468.5 2416.67 468.5L3151.33 468.5C3191.74 468.5 3224.5 501.259 3224.5 541.668L3224.5 834.332C3224.5 874.742 3191.74 907.5 3151.33 907.5L2416.67 907.5C2376.26 907.5 2343.5 874.742 2343.5 834.332Z" stroke="#000000" stroke-width="4.58333" stroke-miterlimit="8" fill="#E7E6E6" fill-rule="evenodd"/><text font-family="FZHei-B01,FZHei-B01_MSFontService,sans-serif" font-weight="700" font-size="147" transform="matrix(1 0 0 1 2415.07 685)">市域机场线</text><text font-family="FZHei-B01,FZHei-B01_MSFontService,sans-serif" font-weight="700" font-size="92" transform="matrix(1 0 0 1 2450.29 809)">Airport</text><text font-family="FZHei-B01,FZHei-B01_MSFontService,sans-serif" font-weight="700" font-size="92" transform="matrix(1 0 0 1 2747.63 809)">Link</text><text font-family="FZHei-B01,FZHei-B01_MSFontService,sans-serif" font-weight="700" font-size="92" transform="matrix(1 0 0 1 2942.43 809)">Lin</text><text font-family="FZHei-B01,FZHei-B01_MSFontService,sans-serif" font-weight="700" font-size="92" transform="matrix(1 0 0 1 3065.03 809)">e</text></g></svg>