<?xml version="1.0" encoding="UTF-8"?>
<svg version="1.1" viewBox="0 0 157.27 78.667" xml:space="preserve" xmlns="http://www.w3.org/2000/svg" xmlns:cc="http://creativecommons.org/ns#" xmlns:dc="http://purl.org/dc/elements/1.1/" xmlns:rdf="http://www.w3.org/1999/02/22-rdf-syntax-ns#"><metadata><rdf:RDF><cc:Work rdf:about=""><dc:format>image/svg+xml</dc:format><dc:type rdf:resource="http://purl.org/dc/dcmitype/StillImage"/></cc:Work></rdf:RDF></metadata><path d="m157.27 70.163c0 4.697-3.807 8.504-8.504 8.504h-140.26c-4.697 0-8.504-3.807-8.504-8.504v-61.66c0-4.696 3.807-8.503 8.504-8.503h140.26c4.697 0 8.504 3.808 8.504 8.504z" fill="#87d300"/><path d="m118.09 61.069 2.871 0.481c-0.369 1.054-0.952 1.854-1.748 2.405-0.797 0.55-1.793 0.825-2.989 0.825-1.894 0-3.295-0.618-4.204-1.855-0.718-0.991-1.077-2.242-1.077-3.754 0-1.805 0.472-3.218 1.415-4.239 0.943-1.022 2.137-1.533 3.579-1.533 1.62 0 2.898 0.535 3.835 1.604 0.937 1.07 1.384 2.709 1.343 4.917h-7.219c0.021 0.854 0.253 1.52 0.697 1.994 0.444 0.476 0.998 0.713 1.661 0.713 0.451 0 0.831-0.123 1.139-0.369s0.539-0.642 0.697-1.189zm0.164-2.912c-0.021-0.834-0.236-1.468-0.646-1.902s-0.909-0.651-1.497-0.651c-0.629 0-1.148 0.229-1.559 0.688s-0.611 1.08-0.604 1.866h4.306zm-9.393 6.378h-2.882v-5.558c0-1.176-0.062-1.937-0.185-2.281-0.123-0.346-0.323-0.613-0.6-0.806-0.277-0.19-0.61-0.287-1-0.287-0.499 0-0.946 0.138-1.343 0.41-0.396 0.274-0.669 0.637-0.815 1.088-0.147 0.451-0.221 1.285-0.221 2.502v4.932h-2.881v-10.89h2.676v1.6c0.95-1.23 2.146-1.846 3.589-1.846 0.636 0 1.217 0.114 1.743 0.344 0.526 0.229 0.925 0.521 1.194 0.876 0.271 0.356 0.458 0.76 0.564 1.211 0.105 0.451 0.159 1.097 0.159 1.938v6.767zm-15.74-12.367v-2.666h2.882v2.666zm0 12.367v-10.89h2.882v10.89zm-12.725 0v-14.91h3.035v12.376h7.547v2.533h-10.582z"/><path d="m142.97 53.903c0-2.8955-1.9867-4.7555-5.1359-4.7555-3.1069 0-4.9246 1.8388-4.9246 5.0091 0 0.12681 0 0.2959 0.021 0.52838h2.8321v-0.48612c0-1.6697 0.78202-2.6419 2.1347-2.6419 1.3104 0 2.1135 0.90882 2.1135 2.4094 0 1.6486-0.50723 2.3249-3.8255 4.6498-2.5151 1.7542-3.3182 3.0646-3.4662 5.8334h10.187v-2.6419h-6.3406c1.2681-2.6842 6.404-3.4239 6.404-7.9046z"/><path d="m24.45 29.231h6.4441c0.29292-4.9923 1.5378-12.783 10.472-12.783 5.8583 0 10.252 4.3115 10.252 10.06 0 4.2359-2.4165 7.8666-7.0299 10.59l-6.737 3.9333c-10.838 6.3538-13.987 11.422-14.572 23.222h34.564v-6.5807h-27.314c0.65906-4.3871 2.8559-7.4127 9.3732-11.043l7.3229-4.0846c7.2496-4.0846 10.984-9.6063 10.984-16.187 0-9.3038-6.8103-15.733-16.623-15.733-7.1032 0-16.696 2.4205-17.135 18.608z" stroke-width="1.8606"/><path d="m141.4 14.256c-1.065-0.92248-3.2305-2.2352-4.828-2.9803l-1.917 1.7385c1.633 0.887 3.7275 2.2707 4.7925 3.2642zm-24.211 15.682c2.556-3.0158 5.112-6.6348 7.171-10.254l-2.698-1.6676c-0.6745 1.2773-1.3845 2.59-2.1655 3.7964l-3.834 0.31932c2.059-2.8384 4.0115-6.4219 5.5025-9.828l-3.0885-1.4902c-1.349 4.1157-3.834 8.5507-4.615 9.6506-0.781 1.1708-1.3845 1.9159-2.059 2.1288 0.3905 0.85152 0.8875 2.4126 1.065 3.0513 0.5325-0.28384 1.3845-0.46124 5.1475-0.92248-1.3845 1.9869-2.5915 3.548-3.2305 4.1512-1.065 1.3482-1.8815 2.1288-2.698 2.3417 0.355 0.81604 0.852 2.3062 0.994 2.9094 0.852-0.42576 2.13-0.78056 10.827-2.5191-0.071-0.67412-0.0355-1.9514 0.0355-2.8029zm6.3545 4.9317c-4.402 1.2773-8.875 2.59-11.821 3.3351l0.6745 3.1222c3.3015-1.0289 7.5615-2.3772 11.644-3.7254zm17.146-6.7767c-1.2425 1.9869-2.911 3.7964-4.8635 5.393-0.4615-1.6676-0.8875-3.619-1.207-5.7833l8.5555-1.5966-0.497-2.8739-8.449 1.5611c-0.142-1.3128-0.284-2.661-0.3905-4.0447l8.4135-1.3128-0.568-2.9094-8.023 1.2063c-0.142-2.3062-0.1775-4.6479-0.142-7.096h-3.3015c0 2.5546 0.071 5.1091 0.213 7.5927l-5.325 0.78056 0.56799 2.9803 4.97-0.74508c0.1065 1.3837 0.2485 2.7674 0.3905 4.1157l-6.6385 1.2418 0.497 2.9448 6.5675-1.2063c0.3905 2.6255 0.923 5.0737 1.5975 7.2025-2.9465 1.8804-6.319 3.4061-9.8335 4.4705 0.7455 0.74508 1.562 1.8804 2.0235 2.6965 3.1595-1.0999 6.2125-2.5191 8.9105-4.2931 1.42 3.0158 3.266 4.8253 5.6445 4.8253 2.5915 0 3.55-1.1354 4.0825-5.2511-0.70999-0.3548-1.7395-1.0289-2.3785-1.8095-0.142 3.0158-0.497 3.8673-1.349 3.8673-1.2425 0-2.343-1.2773-3.3015-3.548 2.627-2.0578 4.8635-4.435 6.5675-7.167zm-40.931-8.9765h-15.726v-4.1512h15.726zm3.479-7.0251h-22.471v9.8989h22.471zm4.118 15.647v-3.0158h-30.885v3.0158h6.9935c-0.71 2.2352-1.562 4.6834-2.272 6.3864h18.211c-0.5325 3.4061-1.207 5.1446-1.988 5.7478-0.426 0.31932-0.8875 0.3548-1.704 0.3548-0.994 0-3.5855-0.03548-5.9995-0.28384 0.6035 0.92248 1.065 2.1998 1.136 3.1577 2.414 0.14192 4.7215 0.14192 6.035 0.07096 1.4555-0.07096 2.414-0.28384 3.3725-1.1354 1.278-1.0999 2.13-3.7609 2.911-9.4732 0.1065-0.46124 0.1775-1.4192 0.1775-1.4192h-17.288c0.3905-1.0999 0.7455-2.2707 1.1005-3.4061z"/></svg>
