<?xml version="1.0" encoding="UTF-8"?>
<svg version="1.1" viewBox="0 0 157.27 78.667" xml:space="preserve" xmlns="http://www.w3.org/2000/svg" xmlns:cc="http://creativecommons.org/ns#" xmlns:dc="http://purl.org/dc/elements/1.1/" xmlns:rdf="http://www.w3.org/1999/02/22-rdf-syntax-ns#"><metadata><rdf:RDF><cc:Work rdf:about=""><dc:format>image/svg+xml</dc:format><dc:type rdf:resource="http://purl.org/dc/dcmitype/StillImage"/></cc:Work></rdf:RDF></metadata><path d="M157.27,70.163c0,4.697-3.807,8.504-8.504,8.504H8.504C3.807,78.667,0,74.86,0,70.163V8.503  C0,3.807,3.807,0,8.504,0h140.262c4.697,0,8.504,3.808,8.504,8.504V70.163z" fill="#C1A7E2"/><path d="m116.79 61.069 2.871 0.481c-0.369 1.054-0.952 1.854-1.748 2.405-0.797 0.55-1.793 0.825-2.989 0.825-1.894 0-3.295-0.618-4.204-1.855-0.718-0.991-1.077-2.242-1.077-3.754 0-1.805 0.472-3.218 1.415-4.239 0.943-1.022 2.137-1.533 3.579-1.533 1.62 0 2.898 0.535 3.835 1.604 0.937 1.07 1.384 2.709 1.343 4.917h-7.219c0.021 0.854 0.253 1.52 0.697 1.994 0.444 0.476 0.998 0.713 1.661 0.713 0.451 0 0.831-0.123 1.139-0.369s0.539-0.642 0.697-1.189zm0.164-2.912c-0.021-0.834-0.236-1.468-0.646-1.902s-0.909-0.651-1.497-0.651c-0.629 0-1.148 0.229-1.559 0.688s-0.611 1.08-0.604 1.866h4.306zm-9.394 6.378h-2.882v-5.558c0-1.176-0.062-1.937-0.185-2.281-0.123-0.346-0.323-0.613-0.6-0.806-0.277-0.19-0.61-0.287-1-0.287-0.499 0-0.946 0.138-1.343 0.41-0.396 0.274-0.669 0.637-0.815 1.088-0.147 0.451-0.221 1.285-0.221 2.502v4.932h-2.881v-10.89h2.676v1.6c0.95-1.23 2.146-1.846 3.589-1.846 0.636 0 1.217 0.114 1.743 0.344 0.526 0.229 0.925 0.521 1.194 0.876 0.271 0.356 0.458 0.76 0.564 1.211 0.105 0.451 0.159 1.097 0.159 1.938v6.767zm-15.739-12.367v-2.666h2.882v2.666zm0 12.367v-10.89h2.882v10.89zm-12.725 0v-14.91h3.035v12.376h7.547v2.533h-10.582z"/><path d="m139.93 49.441c1.456 0 2.595 0.52 3.415 1.559 0.978 1.23 1.466 3.271 1.466 6.121 0 2.845-0.492 4.889-1.477 6.133-0.813 1.025-1.948 1.537-3.404 1.537-1.463 0-2.642-0.562-3.537-1.687-0.896-1.124-1.344-3.129-1.344-6.014 0-2.83 0.492-4.867 1.477-6.111 0.813-1.025 1.948-1.538 3.404-1.538zm0 2.389c-0.349 0-0.659 0.111-0.933 0.334-0.273 0.222-0.485 0.62-0.636 1.194-0.198 0.745-0.298 1.999-0.298 3.763s0.089 2.976 0.267 3.636c0.178 0.659 0.401 1.099 0.672 1.317 0.27 0.219 0.579 0.328 0.928 0.328s0.66-0.111 0.934-0.333c0.273-0.223 0.485-0.62 0.636-1.194 0.198-0.738 0.297-1.99 0.297-3.754s-0.089-2.975-0.267-3.635c-0.178-0.659-0.401-1.101-0.672-1.322-0.27-0.223-0.579-0.334-0.928-0.334zm-7.18 12.705h-2.882v-10.86c-1.053 0.984-2.293 1.713-3.722 2.185v-2.614c0.752-0.246 1.568-0.713 2.45-1.4s1.487-1.488 1.815-2.404h2.338v15.093z"/><path d="m36.436 38.823c0-5.924 0.609-10.692 1.829-14.304 1.219-3.611 3.03-6.397 5.435-8.357 2.404-1.959 5.429-2.939 9.075-2.939 2.688 0 5.047 0.542 7.075 1.623 2.028 1.083 3.703 2.645 5.024 4.684s2.358 4.523 3.11 7.451 1.128 6.876 1.128 11.843c0 5.879-0.604 10.625-1.812 14.235-1.208 3.612-3.014 6.404-5.417 8.375-2.404 1.971-5.44 2.956-9.109 2.956-4.831 0-8.625-1.731-11.382-5.195-3.305-4.171-4.956-10.961-4.956-20.372zm6.323 0c0 8.227 0.962 13.701 2.888 16.423 1.925 2.724 4.301 4.085 7.126 4.085s5.201-1.367 7.126-4.102c1.925-2.734 2.888-8.203 2.888-16.406 0-8.248-0.963-13.729-2.888-16.44-1.926-2.711-4.324-4.067-7.195-4.067-2.826 0-5.082 1.196-6.768 3.589-2.118 3.053-3.177 8.692-3.177 16.918zm-13.68 24.712h-6.152v-39.204c-1.481 1.413-3.424 2.826-5.828 4.238-2.404 1.413-4.563 2.473-6.477 3.179v-5.948c3.44-1.617 6.448-3.577 9.023-5.879 2.575-2.301 4.397-4.534 5.469-6.699h3.965z"/><path d="m141.4 14.256c-1.065-0.92248-3.2305-2.2352-4.828-2.9803l-1.917 1.7385c1.633 0.887 3.7275 2.2707 4.7925 3.2642zm-24.211 15.682c2.556-3.0158 5.112-6.6348 7.171-10.254l-2.698-1.6676c-0.6745 1.2773-1.3845 2.59-2.1655 3.7964l-3.834 0.31932c2.059-2.8384 4.0115-6.4219 5.5025-9.828l-3.0885-1.4902c-1.349 4.1157-3.834 8.5507-4.615 9.6506-0.781 1.1708-1.3845 1.9159-2.059 2.1288 0.3905 0.85152 0.8875 2.4126 1.065 3.0513 0.5325-0.28384 1.3845-0.46124 5.1475-0.92248-1.3845 1.9869-2.5915 3.548-3.2305 4.1512-1.065 1.3482-1.8815 2.1288-2.698 2.3417 0.355 0.81604 0.852 2.3062 0.994 2.9094 0.852-0.42576 2.13-0.78056 10.827-2.5191-0.071-0.67412-0.0355-1.9514 0.0355-2.8029zm6.3545 4.9317c-4.402 1.2773-8.875 2.59-11.821 3.3351l0.6745 3.1222c3.3015-1.0289 7.5615-2.3772 11.644-3.7254zm17.146-6.7767c-1.2425 1.9869-2.911 3.7964-4.8635 5.393-0.4615-1.6676-0.8875-3.619-1.207-5.7833l8.5555-1.5966-0.497-2.8739-8.449 1.5611c-0.142-1.3128-0.284-2.661-0.3905-4.0447l8.4135-1.3128-0.568-2.9094-8.023 1.2063c-0.142-2.3062-0.1775-4.6479-0.142-7.096h-3.3015c0 2.5546 0.071 5.1091 0.213 7.5927l-5.325 0.78056 0.56799 2.9803 4.97-0.74508c0.1065 1.3837 0.2485 2.7674 0.3905 4.1157l-6.6385 1.2418 0.497 2.9448 6.5675-1.2063c0.3905 2.6255 0.923 5.0737 1.5975 7.2025-2.9465 1.8804-6.319 3.4061-9.8335 4.4705 0.7455 0.74508 1.562 1.8804 2.0235 2.6965 3.1595-1.0999 6.2125-2.5191 8.9105-4.2931 1.42 3.0158 3.266 4.8253 5.6445 4.8253 2.5915 0 3.55-1.1354 4.0825-5.2511-0.70999-0.3548-1.7395-1.0289-2.3785-1.8095-0.142 3.0158-0.497 3.8673-1.349 3.8673-1.2425 0-2.343-1.2773-3.3015-3.548 2.627-2.0578 4.8635-4.435 6.5675-7.167zm-40.931-8.9765h-15.726v-4.1512h15.726zm3.479-7.0251h-22.471v9.8989h22.471zm4.118 15.647v-3.0158h-30.885v3.0158h6.9935c-0.71 2.2352-1.562 4.6834-2.272 6.3864h18.211c-0.5325 3.4061-1.207 5.1446-1.988 5.7478-0.426 0.31932-0.8875 0.3548-1.704 0.3548-0.994 0-3.5855-0.03548-5.9995-0.28384 0.6035 0.92248 1.065 2.1998 1.136 3.1577 2.414 0.14192 4.7215 0.14192 6.035 0.07096 1.4555-0.07096 2.414-0.28384 3.3725-1.1354 1.278-1.0999 2.13-3.7609 2.911-9.4732 0.1065-0.46124 0.1775-1.4192 0.1775-1.4192h-17.288c0.3905-1.0999 0.7455-2.2707 1.1005-3.4061z"/></svg>
