<?xml version="1.0" encoding="UTF-8"?>
<svg id="uuid-0ec7f4c3-a6d5-4297-8321-26c8ae023788" data-name="图层 2" xmlns="http://www.w3.org/2000/svg" width="69.04" height="69.04" viewBox="0 0 69.04 69.04">
  <g id="uuid-51cb2998-60a5-4b53-8130-6d9ee8a344aa" data-name="图层 2">
    <g>
      <g id="uuid-6cd7bd51-8ad5-45c1-8171-3842dc5d8e30" data-name="rect3757">
        <path d="M3.75,0h61.54c2.06,0,3.75,1.69,3.75,3.75v61.54c0,2.06-1.69,3.75-3.75,3.75H3.75c-2.06,0-3.75-1.69-3.75-3.75V3.75C0,1.69,1.69,0,3.75,0Z" style="fill: #87189d;"/>
      </g>
      <g>
        <path d="M47.17,35.2c.82,0,1.55-.02,2.19-.06v1.16c-.65-.04-1.38-.06-2.19-.06h-7.03c-.17.6-.37,1.27-.58,2h7.61c-.13.69-.23,1.27-.29,1.74-.06.47-.16,1.04-.29,1.71s-.39,1.12-.77,1.35c-.39.24-1.61.42-3.68.55-.17-.47-.39-.97-.65-1.48,1.55.04,2.53.04,2.93,0,.41-.04.68-.27.81-.68.13-.41.26-1.11.39-2.1h-7.67c.39-1.03.69-2.06.9-3.1h-1.55c-.9,0-1.74.02-2.51.06v-1.16c.77.04,1.61.06,2.51.06h9.87ZM46.72,31.46c0,.82.02,1.59.06,2.32h-9.35c.04-.6.06-1.31.06-2.13,0-.86-.02-1.66-.06-2.39h9.35c-.04.65-.06,1.38-.06,2.19ZM45.5,32.75v-2.45h-6.77v2.45h6.77Z" style="fill: #fff;"/>
        <path d="M54.11,31.04c-.41.71-.96,1.58-1.65,2.61,1.03-.04,1.74-.06,2.13-.06.39-.64.73-1.35,1.03-2.13.43.3.9.54,1.42.71-.43.43-.87,1.01-1.32,1.74-.45.73-1.24,1.98-2.35,3.74,1.16-.09,2.19-.17,3.1-.26-.13.43-.19.8-.19,1.1-.3,0-.97.05-2,.16-1.03.11-1.87.25-2.52.42-.04-.43-.17-.88-.39-1.35.52-.13.99-.47,1.42-1.03.43-.56.88-1.27,1.35-2.13-1.42.09-2.32.26-2.71.52-.13-.47-.32-.95-.58-1.42.56-.39,1.1-1.02,1.61-1.9.52-.88.99-1.9,1.42-3.06.43.3.92.54,1.48.71-.43.39-.85.94-1.26,1.64ZM56.98,40.81c-1.08.22-2.04.43-2.9.65-.86.21-1.66.45-2.39.71-.13-.47-.37-.95-.71-1.42,1.2-.13,2.13-.25,2.77-.35.65-.11,1.72-.33,3.23-.68-.04.47-.04.84,0,1.1ZM59.24,30.88c0-.64-.06-1.35-.19-2.13.56.04,1.14.11,1.74.19-.13.26-.22.68-.26,1.26-.04.58-.04,1.41,0,2.48l2.19-.39c.73-.17,1.46-.36,2.19-.58l.26,1.23c-.73.09-1.48.19-2.26.32l-2.32.45c0,.69.04,1.29.13,1.81l2.52-.45c.86-.17,1.68-.39,2.45-.64l.19,1.23c-.77.13-1.59.28-2.45.45l-2.52.45c.09.86.3,1.66.65,2.39.39-.3.76-.65,1.13-1.03.36-.39.7-.82,1-1.29.65.52,1.14.86,1.48,1.03-.56.26-1,.55-1.32.87s-.85.83-1.58,1.52c.52.86.98,1.41,1.39,1.64.41.24.7.25.87.03.17-.21.32-.67.45-1.35.39.3.84.54,1.35.71-.73,1.89-1.53,2.66-2.39,2.29-.86-.37-1.76-1.22-2.71-2.55-.6.47-1.19.91-1.77,1.32-.58.41-1.3.83-2.16,1.26-.22-.43-.54-.82-.97-1.16.86-.3,1.59-.62,2.19-.97.6-.34,1.29-.84,2.06-1.48-.39-.86-.67-1.87-.84-3.03-1.29.22-2.19.41-2.71.58l-.19-1.23c.52,0,1.4-.13,2.64-.39-.09-.69-.13-1.27-.13-1.74-1.16.26-1.96.45-2.39.58l-.26-1.23c.43,0,1.27-.13,2.52-.39v-2.06ZM61.62,29.91l1.03-.52c.17.22.6.73,1.29,1.55-.43.17-.8.39-1.1.65-.3-.47-.71-1.03-1.23-1.68Z" style="fill: #fff;"/>
      </g>
      <g>
        <path d="M34.69,55.33v-8.58h1.14v7.57h4.24v1.01h-5.38Z" style="fill: #fff;"/>
        <path d="M41.29,47.96v-1.21h1.06v1.21h-1.06ZM41.29,55.33v-6.22h1.06v6.22h-1.06Z" style="fill: #fff;"/>
        <path d="M43.95,55.33v-6.22h.95v.88c.46-.68,1.12-1.02,1.98-1.02.38,0,.72.07,1.04.2.31.13.55.31.71.53s.27.48.33.78c.04.2.06.54.06,1.02v3.82h-1.06v-3.78c0-.43-.04-.75-.12-.96s-.23-.38-.44-.51-.46-.19-.74-.19c-.45,0-.84.14-1.17.43-.33.29-.49.83-.49,1.62v3.39h-1.06Z" style="fill: #fff;"/>
        <path d="M54.91,53.33l1.09.13c-.17.64-.49,1.13-.96,1.48-.47.35-1.06.53-1.78.53-.91,0-1.63-.28-2.17-.84-.53-.56-.8-1.35-.8-2.36s.27-1.86.81-2.43,1.24-.87,2.1-.87,1.51.28,2.04.85.79,1.36.79,2.39c0,.06,0,.16,0,.28h-4.65c.04.68.23,1.21.58,1.57.35.36.78.54,1.3.54.39,0,.72-.1.99-.3.27-.2.49-.53.65-.97ZM51.44,51.63h3.48c-.05-.52-.18-.92-.4-1.18-.34-.41-.77-.61-1.31-.61-.49,0-.89.16-1.22.49-.33.32-.51.76-.55,1.3Z" style="fill: #fff;"/>
      </g>
      <path d="M59.72,48.37v-1h5.42v.81c-.53.57-1.06,1.34-1.59,2.29-.52.95-.93,1.93-1.21,2.93-.21.71-.34,1.48-.39,2.33h-1.06c.01-.67.14-1.47.39-2.41.25-.94.6-1.85,1.07-2.73s.96-1.61,1.48-2.21h-4.1Z" style="fill: #fff;"/>
      <path d="M3.9,18.6v-5.06h27.88v4.09c-2.74,2.9-5.46,6.76-8.15,11.57-2.69,4.81-4.77,9.76-6.24,14.85-1.06,3.58-1.73,7.51-2.03,11.78h-5.44c.06-3.37.72-7.44,2-12.22,1.27-4.77,3.1-9.38,5.48-13.81,2.38-4.43,4.91-8.17,7.59-11.21H3.9Z" style="fill: #fff;"/>
    </g>
  </g>
</svg>