<?xml version="1.0" encoding="UTF-8" standalone="no"?>
<!-- Created with Inkscape (http://www.inkscape.org/) -->

<svg
   xmlns:svg="http://www.w3.org/2000/svg"
   xmlns="http://www.w3.org/2000/svg"
   version="1.1"
   width="200"
   height="115"
   id="svg3139"
   xml:space="preserve"><defs
     id="defs3143"><clipPath
       id="clipPath3157"><path
         d="m 27.48,212.811 540,0 0,568.2 -540,0 0,-568.2 z"
         id="path3159" /></clipPath><clipPath
       id="clipPath3311"><path
         d="m 518.58,497.571 48.9,0 0,14.4 -48.9,0 0,-14.4 z"
         id="path3313" /></clipPath></defs><g
     transform="matrix(0,1.25,1.25,0,-568.11374,-565.47497)"
     id="g3149"><g
       transform="matrix(3.4408602,0,0,3.4408602,-1331.0711,-1109.349)"
       id="g3321"><path
         d="m 543.9,494.391 c -4.38,1.2 -4.38,1.2 -4.38,1.2 0,2.099 0,2.099 0,2.099 -1.02,0.301 -1.02,0.301 -1.02,0.301 0,-6.301 0,-6.301 0,-6.301 1.02,-0.299 1.02,-0.299 1.02,-0.299 0,2.28 0,2.28 0,2.28 4.86,-1.261 4.86,-1.261 4.86,-1.261 0,1.38 0,1.38 0,1.38 0,0.301 -0.18,0.481 -0.48,0.601"
         id="path3179"
         style="fill:#006a63;fill-opacity:1;fill-rule:evenodd;stroke:none" /><path
         d="m 539.52,482.751 c -1.02,0.12 -1.02,0.12 -1.02,0.12 0,-3 0,-3 0,-3 0,-2.4 0.9,-3.12 1.5,-3.12 0.6,-0.18 1.02,0.42 1.2,0.6 0.3,0.6 1.02,2.1 1.5,2.22 0.6,0.18 0.72,-0.72 0.72,-1.8 0,-0.42 0,-2.1 0,-2.1 0.9,-0.3 0.9,-0.3 0.9,-0.3 0,0 0,2.7 0,3.18 0,0.42 0.18,2.7 -1.32,3 -1.08,0.3 -1.98,-1.38 -2.1,-1.68 -0.3,-0.42 -0.6,-1.02 -0.9,-1.02 -0.6,0 -0.6,1.02 -0.6,1.32 0,0.18 0,0.18 0.12,2.58"
         id="path3181"
         style="fill:#006a63;fill-opacity:1;fill-rule:evenodd;stroke:none" /><path
         d="m 523.98,466.311 c 0,-0.18 0.12,-0.18 0.12,0 -1.8,10.68 -1.68,22.5 0,33.36 -4.86,1.32 -4.86,1.32 -4.86,1.32 -0.9,-13.86 0.6,-25.5 4.74,-34.68"
         id="path3183"
         style="fill:#006a63;fill-opacity:1;fill-rule:evenodd;stroke:none" /><path
         d="m 524.58,483.051 c -0.48,-15.72 2.4,-28.38 6.48,-28.56 2.58,0 4.86,5.16 6.42,12.84 0.12,0.3 0,0.3 0,0 -1.86,-5.58 -3.66,-9.18 -5.16,-8.88 -2.58,0.3 -2.88,12.18 -0.78,26.4 0.6,4.38 1.5,8.58 2.4,12.18 -7.56,1.979 -7.56,1.979 -7.56,1.979 -0.9,-4.5 -1.68,-10.079 -1.8,-15.959"
         id="path3185"
         style="fill:#006a63;fill-opacity:1;fill-rule:evenodd;stroke:none" /><path
         d="m 544.38,485.751 c 0,0.12 0,0.42 -0.18,0.6 -3,2.4 -3,2.4 -3,2.4 3.18,-0.9 3.18,-0.9 3.18,-0.9 0,1.62 0,1.62 0,1.62 -5.88,1.68 -5.88,1.68 -5.88,1.68 0,-1.68 0,-1.68 0,-1.68 3.72,-3.12 3.72,-3.12 3.72,-3.12 -3.72,0 -3.72,0 -3.72,0 0,-1.38 0,-1.38 0,-1.38 0,-0.12 0,-0.12 0,-0.12 5.88,-3.48 5.88,-3.48 5.88,-3.48 0,1.8 0,1.8 0,1.8 -3.18,1.8 -3.18,1.8 -3.18,1.8 2.58,0 2.58,0 2.58,0 0.6,0 0.6,0 0.6,0 0,0 0,0.6 0,0.78"
         id="path3187"
         style="fill:#006a63;fill-opacity:1;fill-rule:evenodd;stroke:none" /></g></g></svg>