<?xml version="1.0" encoding="UTF-8" standalone="no"?>
<!-- Generator: Adobe Illustrator 16.0.0, SVG Export Plug-In . SVG Version: 6.00 Build 0)  -->

<svg
   xmlns:dc="http://purl.org/dc/elements/1.1/"
   xmlns:cc="http://creativecommons.org/ns#"
   xmlns:rdf="http://www.w3.org/1999/02/22-rdf-syntax-ns#"
   xmlns:svg="http://www.w3.org/2000/svg"
   xmlns="http://www.w3.org/2000/svg"
   xmlns:sodipodi="http://sodipodi.sourceforge.net/DTD/sodipodi-0.dtd"
   xmlns:inkscape="http://www.inkscape.org/namespaces/inkscape"
   version="1.1"
   id="图层_1"
   x="0px"
   y="0px"
   width="315"
   height="271"
   viewBox="0 0 315 270.99999"
   enable-background="new 0 0 680.32 453.54"
   xml:space="preserve"
   sodipodi:docname="Commercial Aircraft Corporation of China (COMAC) logo.svg"
   inkscape:version="0.92.1 r15371"><metadata
   id="metadata101"><rdf:RDF><cc:Work
       rdf:about=""><dc:format>image/svg+xml</dc:format><dc:type
         rdf:resource="http://purl.org/dc/dcmitype/StillImage" /><dc:title></dc:title></cc:Work></rdf:RDF></metadata><defs
   id="defs99" /><sodipodi:namedview
   pagecolor="#ffffff"
   bordercolor="#666666"
   borderopacity="1"
   objecttolerance="10"
   gridtolerance="10"
   guidetolerance="10"
   inkscape:pageopacity="0"
   inkscape:pageshadow="2"
   inkscape:window-width="1440"
   inkscape:window-height="838"
   id="namedview97"
   showgrid="false"
   inkscape:zoom="1.040702"
   inkscape:cx="411.2021"
   inkscape:cy="142.81659"
   inkscape:window-x="-8"
   inkscape:window-y="-8"
   inkscape:window-maximized="1"
   inkscape:current-layer="图层_1" />
<rect
   x="1074.9946"
   y="470.75513"
   width="223.795"
   height="149.198"
   id="rect2"
   style="fill:#005aaa" />
<g
   id="g48"
   transform="translate(849.42663,409.36814)">
	<g
   id="g10">
		<path
   d="m 294.121,90.524 c -6.092,0.912 -13.301,4.283 -13.301,4.283 0,0 39.195,29.783 45.415,34.223 12.151,8.683 18.051,9.521 29.295,2.075 0.049,-0.031 3.688,-2.408 3.737,-2.44 -3.38,0.171 -6.883,-1.736 -10.819,-4.676 -12.583,-9.429 -37.683,-28.113 -39.361,-29.367 -5.847,-4.361 -9.505,-4.913 -14.966,-4.098 z"
   id="path4"
   inkscape:connector-curvature="0"
   style="fill:#ffffff" />
		<path
   d="m 378.168,95.773 c -6.272,-4.71 -10.791,-8.044 -18.1,-3.206 -0.787,0.522 -23.857,15.754 -24.99,16.509 6.314,4.728 10.842,8.115 18.18,3.255 1.02,-0.678 17.916,-11.835 19.074,-12.592 3.381,-2.202 5.005,-2.858 7.025,-3.115 -0.021,-0.018 -1.166,-0.833 -1.189,-0.851 z"
   id="path6"
   inkscape:connector-curvature="0"
   style="fill:#ffffff" />
		<path
   d="m 349.238,119.974 c 6.277,4.706 10.797,8.045 18.104,3.205 0.781,-0.523 25.744,-16.994 26.88,-17.746 -6.317,-4.732 -10.84,-8.117 -18.175,-3.255 -1.023,0.676 -19.813,13.07 -20.965,13.826 -3.387,2.205 -6.461,2.419 -8.725,1.817 0.026,0.019 2.855,2.134 2.881,2.153 z"
   id="path8"
   inkscape:connector-curvature="0"
   style="fill:#ffffff" />
	</g>
	<g
   id="g26">
		<g
   id="g24">
			<g
   id="g22">
				<path
   d="m 298.358,174.955 c -3.274,-0.832 -7.489,-0.681 -9.566,0.668 -1.147,0.746 -1.851,1.663 -1.851,3.149 0,1.346 0.816,2.387 2.082,3.16 1.94,1.179 6.042,1.308 9.734,0.468 l -0.373,3.373 c -7.205,1.705 -12.034,0.023 -14.175,-1.208 -2.092,-1.219 -3.538,-3.248 -3.538,-5.843 0,-2.31 0.967,-3.858 2.661,-5.241 2.092,-1.713 7.014,-3.271 14.465,-1.824 z"
   id="path12"
   inkscape:connector-curvature="0"
   style="fill:#ffffff" />
				<path
   d="m 394.163,174.955 c -3.275,-0.832 -7.489,-0.681 -9.569,0.668 -1.152,0.746 -1.854,1.663 -1.854,3.149 0,1.346 0.816,2.387 2.086,3.16 1.941,1.179 6.039,1.308 9.732,0.468 l -0.367,3.373 c -7.213,1.705 -12.044,0.023 -14.183,-1.208 -2.087,-1.219 -3.534,-3.248 -3.534,-5.843 0,-2.31 0.972,-3.858 2.661,-5.241 2.101,-1.713 7.016,-3.271 14.466,-1.824 z"
   id="path14"
   inkscape:connector-curvature="0"
   style="fill:#ffffff" />
				<path
   d="m 324.358,178.783 c 0,-0.053 0.002,-0.106 0.002,-0.159 h -0.006 c -0.094,-2.196 -1.046,-3.708 -2.654,-5.063 -1.562,-1.319 -4.482,-2.472 -9.257,-2.472 -4.774,0 -7.699,1.153 -9.257,2.472 -1.61,1.354 -2.563,2.867 -2.649,5.063 h -0.011 c 0,0.053 0,0.105 0.004,0.159 -0.004,0.056 -0.004,0.11 -0.004,0.165 h 0.011 c 0.086,2.194 1.039,3.712 2.649,5.068 1.558,1.315 4.483,2.463 9.257,2.463 4.775,0 7.695,-1.148 9.257,-2.463 1.608,-1.356 2.56,-2.874 2.654,-5.068 h 0.006 c 10e-4,-0.054 -0.002,-0.109 -0.002,-0.165 z m -8.118,3.023 c -0.928,0.624 -2.446,1.058 -3.797,1.058 -1.354,0 -2.868,-0.434 -3.795,-1.058 -1.095,-0.734 -1.785,-1.62 -1.849,-3.023 0.064,-1.401 0.754,-2.285 1.849,-3.021 0.928,-0.621 2.441,-1.053 3.795,-1.053 1.351,0 2.869,0.432 3.797,1.053 1.099,0.737 1.784,1.621 1.849,3.021 -0.065,1.403 -0.75,2.289 -1.849,3.023 z"
   id="path16"
   inkscape:connector-curvature="0"
   style="fill:#ffffff" />
				<path
   d="m 368.23,171.52 h -7.567 l -8.579,14.368 h 6.668 l 2.202,-4.543 h 6.998 l 2.19,4.543 h 6.665 z m -5.719,6.555 1.938,-4.001 1.932,4.001 z"
   id="path18"
   inkscape:connector-curvature="0"
   style="fill:#ffffff" />
				<polygon
   points="332.229,185.888 332.305,175.038 336.331,185.888 339.078,185.888 339.082,185.888 341.825,185.888 345.855,175.038 345.92,185.888 351.252,185.888 350.887,171.52 342.442,171.52 339.078,181.277 335.707,171.52 327.271,171.52 326.901,185.888 "
   id="polygon20"
   style="fill:#ffffff" />
			</g>
		</g>
	</g>
	<g
   id="g46">
		<path
   d="m 293.7,149.93 v -2.975 c -1.625,0 -3.368,0 -4.019,0 v 2.975 h -9.009 v 13.541 h 9.125 v 3.517 h 3.902 v -3.517 h 9.438 V 149.93 Z m -3.903,11.247 h -5.441 v -8.86 h 5.441 z m 9.334,0 H 293.7 v -8.86 h 5.431 z"
   id="path28"
   inkscape:connector-curvature="0"
   style="fill:#ffffff" />
		<g
   id="g36">
			<path
   d="m 332.852,147.481 h -22.673 v 19.151 h 22.673 z m -3.579,16.867 h -15.625 v -14.563 h 15.625 z"
   id="path30"
   inkscape:connector-curvature="0"
   style="fill:#ffffff" />
			<polygon
   points="322.98,157.706 327.864,157.706 327.864,155.572 322.98,155.572 322.98,153.198 328.302,153.198 328.302,151.06 314.63,151.06 314.63,153.198 319.506,153.198 319.506,155.572 315.059,155.572 315.059,157.706 319.506,157.706 319.506,160.8 314.413,160.8 314.413,163.021 328.312,163.021 328.312,160.8 322.98,160.8 "
   id="polygon32"
   style="fill:#ffffff" />
			<path
   d="m 328.312,161.569 c -0.007,-0.425 0.011,-0.595 -0.019,-0.86 -0.064,-1.122 -0.392,-1.516 -0.392,-1.516 h -2.878 c 0,0 0.327,0.548 0.272,2.376 z"
   id="path34"
   inkscape:connector-curvature="0"
   style="fill:#ffffff" />
		</g>
		<g
   id="g42">
			<path
   d="m 349.987,146.998 c 0,0 0,0.882 0,2.479 h 3.778 v -2.479 z"
   id="path38"
   inkscape:connector-curvature="0"
   style="fill:#ffffff" />
			<path
   d="m 363.701,148.251 h -23.809 v 2.136 h 14.991 l -1.306,2.22 h -3.029 l -1.486,-2.712 -3.905,0.018 1.482,2.695 h -5.607 v 14.037 h 3.48 v -7.117 l 1.438,-0.696 v 5.371 h 11.523 v -5.846 l 1.764,0.776 c 0,0 0,4.356 0,4.647 0,0.305 -0.096,0.73 -0.777,0.73 -0.565,0 -0.824,0 -0.824,0 v 2.546 c 0,0 1.569,0 2.473,0 2.336,0 2.701,-1.643 2.701,-2.912 0,-1.282 0,-11.447 0,-11.447 h -5.072 l 1.76,-2.538 -2.118,0.228 h 6.323 v -2.136 z m -19.189,8.457 v -1.967 h 4.301 z m 10.033,5.619 h -5.668 v -2.896 h 5.668 z m -5.631,-4.768 c 0,0 1.386,-0.822 2.255,-1.305 l -1.712,-1.513 h 4.776 l -1.544,1.52 2.413,1.298 z m 10.322,-2.818 v 1.809 l -4.24,-1.809 z"
   id="path40"
   inkscape:connector-curvature="0"
   style="fill:#ffffff" />
		</g>
		<path
   d="m 394.561,165.049 c -0.938,-2.316 -1.594,-3.652 -1.596,-3.652 -1.58,1.026 -9.689,2.55 -10.152,-3.849 1.551,-0.057 5.239,0.683 7.665,2.029 0.554,-0.635 1.927,-2.375 2.28,-2.821 -0.932,-0.459 -4.32,-1.513 -6.689,-1.833 1.696,-0.435 4.153,-1.365 6.594,-3.428 -0.531,-0.334 -2.15,-1.503 -3.043,-2.129 -2.254,1.949 -5.146,3.35 -6.641,3.782 0.029,-0.176 0.375,-3.782 0.715,-5.094 h -13.6 v 2.47 h 9.223 c -0.674,4.16 -0.65,7.55 0.146,9.89 1.822,5.255 7.677,6.04 10.678,5.767 1.834,-0.157 4.137,-0.754 4.42,-1.132 z"
   id="path44"
   inkscape:connector-curvature="0"
   style="fill:#ffffff" />
	</g>
</g>

<g
   id="g94"
   transform="matrix(2.6705259,0,0,2.6705259,-759.48147,-716.312)">
	<path
   d="m 300.175,271.391 c -6.092,0.912 -13.301,4.283 -13.301,4.283 0,0 39.195,29.783 45.415,34.224 12.151,8.683 18.049,9.519 29.295,2.075 0.049,-0.032 3.688,-2.408 3.736,-2.44 -3.379,0.171 -6.883,-1.737 -10.818,-4.677 -12.582,-9.43 -37.683,-28.113 -39.362,-29.366 -5.846,-4.362 -9.505,-4.914 -14.965,-4.099 z"
   id="path52"
   inkscape:connector-curvature="0"
   style="fill:#005aaa" />
	<path
   d="m 384.223,276.64 c -6.273,-4.71 -10.793,-8.044 -18.104,-3.205 -0.783,0.522 -23.857,15.753 -24.987,16.509 6.314,4.729 10.841,8.114 18.177,3.256 1.021,-0.678 17.918,-11.837 19.077,-12.594 3.38,-2.201 5.005,-2.855 7.026,-3.113 -0.023,-0.02 -1.167,-0.837 -1.189,-0.853 z"
   id="path54"
   inkscape:connector-curvature="0"
   style="fill:#80c341" />
	<path
   d="m 355.292,300.842 c 6.276,4.705 10.794,8.043 18.104,3.202 0.779,-0.521 25.742,-16.993 26.877,-17.745 -6.316,-4.731 -10.84,-8.117 -18.174,-3.254 -1.023,0.676 -19.813,13.07 -20.963,13.826 -3.387,2.205 -6.462,2.418 -8.727,1.818 0.027,0.018 2.857,2.133 2.883,2.153 z"
   id="path56"
   inkscape:connector-curvature="0"
   style="fill:#80c341" />
	<g
   id="g72">
		<g
   id="g70">
			<g
   id="g68">
				<path
   d="m 304.412,355.821 c -3.274,-0.831 -7.489,-0.681 -9.566,0.668 -1.15,0.747 -1.852,1.664 -1.852,3.149 0,1.348 0.814,2.389 2.081,3.162 1.942,1.178 6.041,1.307 9.735,0.467 l -0.373,3.373 c -7.207,1.706 -12.035,0.023 -14.176,-1.209 -2.095,-1.217 -3.537,-3.245 -3.537,-5.842 0,-2.311 0.967,-3.859 2.661,-5.242 2.092,-1.711 7.014,-3.27 14.465,-1.822 z"
   id="path58"
   inkscape:connector-curvature="0"
   style="fill:#005aaa" />
				<path
   d="m 400.217,355.821 c -3.275,-0.831 -7.49,-0.681 -9.57,0.668 -1.152,0.747 -1.852,1.664 -1.852,3.149 0,1.348 0.816,2.389 2.084,3.162 1.941,1.178 6.04,1.307 9.731,0.467 l -0.364,3.373 c -7.215,1.706 -12.045,0.023 -14.184,-1.209 -2.088,-1.217 -3.536,-3.245 -3.536,-5.842 0,-2.311 0.974,-3.859 2.661,-5.242 2.102,-1.711 7.018,-3.27 14.467,-1.822 z"
   id="path60"
   inkscape:connector-curvature="0"
   style="fill:#005aaa" />
				<path
   d="m 330.411,359.65 c 0,-0.053 0.004,-0.105 0.004,-0.158 h -0.007 c -0.093,-2.197 -1.045,-3.709 -2.653,-5.064 -1.562,-1.318 -4.484,-2.473 -9.259,-2.473 -4.771,0 -7.697,1.154 -9.255,2.473 -1.61,1.355 -2.563,2.867 -2.649,5.064 h -0.011 c 0,0.053 0,0.105 0.004,0.158 -0.004,0.056 -0.004,0.109 -0.004,0.165 h 0.011 c 0.086,2.194 1.039,3.712 2.649,5.067 1.558,1.316 4.483,2.465 9.255,2.465 4.775,0 7.698,-1.148 9.259,-2.465 1.608,-1.355 2.561,-2.873 2.653,-5.067 h 0.007 c 0,-0.055 -0.004,-0.109 -0.004,-0.165 z m -8.117,3.023 c -0.93,0.624 -2.446,1.059 -3.799,1.059 -1.353,0 -2.865,-0.435 -3.794,-1.059 -1.094,-0.733 -1.784,-1.618 -1.848,-3.022 0.064,-1.402 0.754,-2.285 1.848,-3.021 0.929,-0.621 2.442,-1.054 3.794,-1.054 1.354,0 2.87,0.433 3.799,1.054 1.099,0.736 1.784,1.619 1.849,3.021 -0.065,1.404 -0.75,2.288 -1.849,3.022 z"
   id="path62"
   inkscape:connector-curvature="0"
   style="fill:#005aaa" />
				<path
   d="m 374.284,352.386 h -7.567 l -8.58,14.369 h 6.668 l 2.201,-4.544 h 7 l 2.189,4.544 h 6.666 z m -5.72,6.555 1.938,-4 1.932,4 z"
   id="path64"
   inkscape:connector-curvature="0"
   style="fill:#005aaa" />
				<polygon
   points="333.323,352.386 332.955,366.755 338.283,366.755 338.358,355.904 342.385,366.755 345.132,366.755 345.133,366.755 347.879,366.755 351.909,355.904 351.975,366.755 357.305,366.755 356.94,352.386 348.496,352.386 345.132,362.144 341.76,352.386 "
   id="polygon66"
   style="fill:#005aaa" />
			</g>
		</g>
	</g>
	<g
   id="g92">
		<path
   d="m 299.753,330.796 v -2.976 c -1.626,0 -3.368,0 -4.019,0 v 2.976 h -9.009 v 13.542 h 9.125 v 3.516 h 3.902 v -3.516 h 9.438 v -13.542 z m -3.902,11.249 h -5.441 v -8.861 h 5.441 z m 9.332,0 h -5.43 v -8.861 h 5.43 z"
   id="path74"
   inkscape:connector-curvature="0"
   style="fill:#005aaa" />
		<g
   id="g82">
			<path
   d="M 338.904,328.348 H 316.232 V 347.5 h 22.672 z m -3.577,16.867 h -15.628 v -14.563 h 15.628 z"
   id="path76"
   inkscape:connector-curvature="0"
   style="fill:#005aaa" />
			<polygon
   points="325.558,338.572 325.558,341.667 320.466,341.667 320.466,343.887 334.363,343.887 334.363,341.667 329.031,341.667 329.031,338.572 333.918,338.572 333.918,336.439 329.031,336.439 329.031,334.065 334.354,334.065 334.354,331.928 320.683,331.928 320.683,334.065 325.558,334.065 325.558,336.439 321.112,336.439 321.112,338.572 "
   id="polygon78"
   style="fill:#005aaa" />
			<path
   d="m 334.363,342.437 c -0.005,-0.427 0.014,-0.597 -0.016,-0.862 -0.064,-1.121 -0.394,-1.516 -0.394,-1.516 h -2.876 c 0,0 0.325,0.549 0.271,2.378 z"
   id="path80"
   inkscape:connector-curvature="0"
   style="fill:#005aaa" />
		</g>
		<g
   id="g88">
			<path
   d="m 356.039,327.865 c 0,0 0,0.883 0,2.479 h 3.779 v -2.479 z"
   id="path84"
   inkscape:connector-curvature="0"
   style="fill:#005aaa" />
			<path
   d="m 369.755,329.117 h -23.81 v 2.137 h 14.991 l -1.306,2.221 h -3.029 l -1.486,-2.713 -3.906,0.017 1.482,2.696 h -5.606 v 14.036 h 3.478 v -7.118 l 1.441,-0.695 v 5.371 h 11.523 v -5.846 l 1.761,0.777 c 0,0 0,4.354 0,4.646 0,0.305 -0.095,0.73 -0.776,0.73 -0.564,0 -0.824,0 -0.824,0 v 2.545 c 0,0 1.57,0 2.473,0 2.336,0 2.699,-1.644 2.699,-2.912 0,-1.281 0,-11.447 0,-11.447 h -5.068 l 1.76,-2.537 -2.121,0.229 h 6.325 v -2.137 z m -19.192,8.457 v -1.966 h 4.305 z m 10.035,5.619 h -5.667 v -2.896 h 5.667 z m -5.629,-4.768 c 0,0 1.385,-0.82 2.254,-1.304 l -1.713,-1.513 h 4.775 l -1.543,1.52 2.414,1.297 z m 10.319,-2.817 v 1.808 l -4.239,-1.808 z"
   id="path86"
   inkscape:connector-curvature="0"
   style="fill:#005aaa" />
		</g>
		<path
   d="m 400.614,345.917 c -0.937,-2.317 -1.596,-3.653 -1.596,-3.653 -1.583,1.025 -9.692,2.55 -10.153,-3.849 1.551,-0.056 5.24,0.683 7.666,2.028 0.553,-0.635 1.927,-2.375 2.277,-2.821 -0.929,-0.459 -4.316,-1.513 -6.687,-1.833 1.693,-0.434 4.153,-1.364 6.592,-3.426 -0.53,-0.336 -2.149,-1.506 -3.04,-2.131 -2.254,1.949 -5.146,3.351 -6.643,3.782 0.03,-0.175 0.377,-3.782 0.713,-5.095 h -13.598 v 2.471 h 9.221 c -0.67,4.16 -0.648,7.55 0.15,9.889 1.82,5.257 7.676,6.039 10.676,5.769 1.837,-0.157 4.14,-0.755 4.422,-1.131 z"
   id="path90"
   inkscape:connector-curvature="0"
   style="fill:#005aaa" />
	</g>
</g>
</svg>