<?xml version="1.0" encoding="utf-8"?>
<!-- Generator: Adobe Illustrator 16.0.0, SVG Export Plug-In . SVG Version: 6.00 Build 0)  -->
<!DOCTYPE svg PUBLIC "-//W3C//DTD SVG 1.1//EN" "http://www.w3.org/Graphics/SVG/1.1/DTD/svg11.dtd">
<svg version="1.1" id="圖層_1_拷貝" xmlns="http://www.w3.org/2000/svg" xmlns:xlink="http://www.w3.org/1999/xlink" x="0px"
	 y="0px" width="415px" height="237px" viewBox="0 0 415 237" enable-background="new 0 0 415 237" xml:space="preserve">
<g>
	<path fill-rule="evenodd" clip-rule="evenodd" fill="#00A1CD" d="M229.481,105.564c19.075-27.933,45.332-50.099,74.357-67.318
		C336.289,18.993,372.896,6.984,410.25,5.279c0.161,0.237-18.203,16.902-25.521,24.401c-14.628,14.991-26.391,31.797-36.03,50.419
		c-2.393,4.621-7.771,15.636-7.771,15.636S238.136,103.153,229.481,105.564z"/>
	<polygon fill-rule="evenodd" clip-rule="evenodd" fill="#898989" points="86.041,169.363 99.313,136.667 130.773,134.879 
		96.068,230.319 64.144,230.187 77.348,193.567 51.163,194.29 37.982,230.121 6.125,230.121 38.446,141.966 70.966,139.714 
		59.372,170.164 	"/>
	<path fill-rule="evenodd" clip-rule="evenodd" fill="#898989" d="M295.271,230.319h-33.734c0,0-21.827-67.74-22.743-70.292
		c-0.563,1.524-23.442,70.292-23.442,70.292h-32.763l37.09-103.769l37.001-2.737L295.271,230.319z"/>
	<polygon fill-rule="evenodd" clip-rule="evenodd" fill="#898989" points="156.185,230.319 123.068,230.319 158.121,132.116 
		192.391,129.291 	"/>
	<path fill-rule="evenodd" clip-rule="evenodd" fill="#00A1CD" d="M294.653,37.541c-23.861,12.537-47.685,25.947-67.292,45.885
		c-4.698-26.879-15.2-51.472-34.794-70.179C207.051,9.988,279.022,23.5,294.653,37.541z"/>
</g>
</svg>
