<?xml version="1.0" encoding="utf-8"?>
<!-- Generator: Adobe Illustrator 15.0.0, SVG Export Plug-In  -->
<!DOCTYPE svg PUBLIC "-//W3C//DTD SVG 1.1 Tiny//EN" "http://www.w3.org/Graphics/SVG/1.1/DTD/svg11-tiny.dtd" [
	<!ENTITY ns_flows "http://ns.adobe.com/Flows/1.0/">
]>
<svg version="1.1" baseProfile="tiny"
	 xmlns="http://www.w3.org/2000/svg" xmlns:xlink="http://www.w3.org/1999/xlink" xmlns:a="http://ns.adobe.com/AdobeSVGViewerExtensions/3.0/"
	 x="0px" y="0px" width="144px" height="83px" viewBox="0 0 144 83" xml:space="preserve">
<defs>
</defs>
<path fill="none" stroke="#FFFFFF" stroke-miterlimit="10" d="M143.468,39.352c0.06,0.692,0.09,1.388,0.09,2.088
	c0,0.715-0.031,1.426-0.094,2.132"/>
<line fill="none" stroke="#FFFFFF" stroke-miterlimit="10" x1="78.292" y1="59.477" x2="82.002" y2="55.469"/>
<path fill="#1285C7" d="M136.421,23.403h-24.732l-3.983,4.303h31.814l0.001-0.003c0.745,1.225,1.394,2.476,1.939,3.75l-0.003-0.003
	h-37.219l-3.849,4.157h42.461l0.003,0.004c0.3,1.23,0.506,2.478,0.614,3.74c0,0-47.69,0-47.69,0V24.302H62.686h0.011L46.813,40.688
	c-3.134,3.233-12.471,2.652-12.471,2.652s6.577,3.428,3.48,6.622l-9.017,9.301h21.306l7.607-7.607
	c3.097-3.194-3.292-6.433-3.292-6.433s9.337,0.581,12.471-2.652l11.396-11.489v0.547v9.813c0,4.156-6.235,4.782-6.235,4.782
	s6.235,2.946,6.235,6.622v6.721v-0.303h58.345l-0.022-0.021c-11.535,13.978-36.231,23.638-64.836,23.638
	C32.137,82.879,0,64.327,0,41.44C0,18.553,32.137,0,71.779,0C100.223,0,124.804,9.552,136.421,23.403z"/>
<path fill="#1484C6" d="M95.778,43.666v2.459c0,0-5.125,0.001-5.126,0c0,0-1.188,1.285-1.188,1.285h53.353l0.002,0.001
	c0.315-1.262,0.532-2.542,0.646-3.838l-0.009,0.093H95.778z"/>
<path fill="#24449A" d="M83.19,54.24c0.001,0.001,12.588,0,12.588,0v-2.515h45.552c-0.561,1.267-1.222,2.511-1.979,3.728
	l0.029,0.017H82.002l1.163-1.256"/>
<path fill="#1285C7" d="M56.555,52.819l1.164-1.164c3.097-3.194-3.292-6.433-3.292-6.433s9.337,0.581,12.471-2.652l11.396-11.489
	v0.547v9.813c0,4.156-6.235,4.782-6.235,4.782s6.235,2.946,6.235,6.622"/>
<path fill="#24449A" d="M35.052,52.844l-6.247,6.418h21.306l6.443-6.418h21.738v6.721v-0.303h58.345l-0.022-0.021
	c-11.535,13.978-36.231,23.638-64.836,23.638c-32.809,0-60.478-12.68-69.041-30.035"/>
</svg>
